<svg xmlns="http://www.w3.org/2000/svg" xmlns:xlink="http://www.w3.org/1999/xlink" width="800" zoomAndPan="magnify" viewBox="0 0 600 149.999998" height="200" preserveAspectRatio="xMidYMid meet" version="1.0"><defs><g/></defs><path fill="#ffffff" d="M 585.710938 95.867188 C 585.960938 95.269531 586.320312 94.742188 586.761719 94.300781 C 587.203125 93.855469 587.730469 93.496094 588.328125 93.234375 C 588.9375 92.96875 589.570312 92.851562 590.253906 92.851562 C 590.933594 92.851562 591.570312 92.984375 592.179688 93.234375 C 592.777344 93.496094 593.304688 93.84375 593.746094 94.300781 C 594.1875 94.742188 594.546875 95.269531 594.796875 95.867188 C 595.0625 96.480469 595.179688 97.125 595.179688 97.808594 C 595.179688 98.492188 595.050781 99.148438 594.796875 99.75 C 594.546875 100.347656 594.1875 100.875 593.746094 101.316406 C 593.304688 101.761719 592.777344 102.109375 592.179688 102.359375 C 591.582031 102.609375 590.933594 102.730469 590.253906 102.730469 C 589.570312 102.730469 588.9375 102.609375 588.328125 102.359375 C 587.730469 102.121094 587.203125 101.761719 586.761719 101.316406 C 586.320312 100.875 585.960938 100.347656 585.710938 99.75 C 585.445312 99.148438 585.316406 98.503906 585.316406 97.808594 C 585.316406 97.113281 585.445312 96.480469 585.710938 95.867188 Z M 586.234375 99.53125 C 586.460938 100.082031 586.761719 100.550781 587.15625 100.945312 C 587.539062 101.351562 588.003906 101.664062 588.542969 101.890625 C 589.070312 102.132812 589.65625 102.25 590.253906 102.25 C 590.851562 102.25 591.425781 102.132812 591.964844 101.890625 C 592.488281 101.664062 592.957031 101.339844 593.351562 100.945312 C 593.734375 100.539062 594.042969 100.070312 594.273438 99.53125 C 594.5 99.007812 594.617188 98.417969 594.617188 97.808594 C 594.617188 97.199219 594.511719 96.621094 594.273438 96.085938 C 594.042969 95.546875 593.746094 95.066406 593.351562 94.671875 C 592.957031 94.277344 592.5 93.953125 591.964844 93.714844 C 591.425781 93.472656 590.863281 93.367188 590.253906 93.367188 C 589.644531 93.367188 589.070312 93.472656 588.542969 93.714844 C 588.015625 93.941406 587.550781 94.265625 587.15625 94.671875 C 586.761719 95.066406 586.460938 95.546875 586.234375 96.085938 C 586.007812 96.621094 585.902344 97.199219 585.902344 97.808594 C 585.902344 98.417969 586.007812 98.992188 586.234375 99.53125 Z M 588.398438 95.546875 C 588.375 95.210938 588.351562 94.910156 588.316406 94.648438 C 588.496094 94.671875 588.6875 94.695312 588.867188 94.707031 C 589.058594 94.71875 589.25 94.730469 589.441406 94.730469 C 589.621094 94.730469 589.8125 94.71875 589.992188 94.683594 C 590.183594 94.660156 590.375 94.648438 590.550781 94.648438 C 590.792969 94.648438 591.019531 94.671875 591.234375 94.730469 C 591.4375 94.777344 591.628906 94.875 591.785156 94.984375 C 591.941406 95.089844 592.058594 95.234375 592.15625 95.414062 C 592.25 95.582031 592.285156 95.785156 592.285156 96.023438 C 592.285156 96.300781 592.226562 96.539062 592.09375 96.753906 C 591.964844 96.957031 591.796875 97.136719 591.605469 97.28125 C 591.414062 97.414062 591.210938 97.519531 590.996094 97.605469 C 590.78125 97.675781 590.589844 97.710938 590.410156 97.726562 C 590.601562 97.941406 590.792969 98.203125 591.019531 98.503906 C 591.246094 98.800781 591.472656 99.089844 591.699219 99.390625 C 591.929688 99.675781 592.144531 99.941406 592.347656 100.191406 C 592.539062 100.429688 592.71875 100.621094 592.847656 100.742188 L 592.847656 100.8125 C 592.753906 100.789062 592.65625 100.777344 592.574219 100.765625 C 592.488281 100.765625 592.40625 100.753906 592.324219 100.753906 C 592.203125 100.753906 592.023438 100.765625 591.796875 100.828125 C 591.449219 100.324219 591.101562 99.832031 590.742188 99.339844 C 590.386719 98.863281 589.992188 98.359375 589.570312 97.867188 L 589.128906 97.867188 L 589.128906 98.839844 C 589.128906 99.496094 589.152344 100.15625 589.214844 100.839844 C 589.023438 100.789062 588.878906 100.765625 588.769531 100.765625 C 588.652344 100.765625 588.496094 100.777344 588.316406 100.839844 C 588.328125 100.515625 588.351562 100.191406 588.386719 99.855469 C 588.410156 99.542969 588.425781 99.210938 588.425781 98.898438 L 588.425781 96.539062 C 588.425781 96.226562 588.425781 95.90625 588.398438 95.570312 Z M 589.367188 97.519531 C 589.476562 97.519531 589.585938 97.53125 589.714844 97.53125 C 589.953125 97.53125 590.183594 97.507812 590.386719 97.460938 C 590.589844 97.414062 590.78125 97.328125 590.933594 97.222656 C 591.089844 97.113281 591.222656 96.96875 591.316406 96.789062 C 591.414062 96.609375 591.449219 96.394531 591.449219 96.144531 C 591.449219 95.796875 591.328125 95.496094 591.089844 95.292969 C 590.863281 95.089844 590.550781 94.984375 590.171875 94.984375 C 589.992188 94.984375 589.824219 94.984375 589.667969 95.007812 C 589.5 95.019531 589.355469 95.042969 589.214844 95.066406 C 589.203125 95.269531 589.175781 95.496094 589.152344 95.714844 C 589.140625 95.941406 589.128906 96.15625 589.128906 96.359375 L 589.128906 97.484375 C 589.128906 97.484375 589.261719 97.507812 589.355469 97.519531 Z M 589.367188 97.519531 " fill-opacity="1" fill-rule="nonzero"/><path fill="#ffffff" d="M 163.128906 95.59375 L 163.054688 94.277344 C 162.925781 91.867188 162.410156 63.5 162.445312 54.84375 C 162.445312 54.472656 162.804688 17.648438 162.902344 15.359375 L 162.960938 14.054688 L 162.960938 13.960938 C 162.960938 13.960938 162.875 13.960938 162.875 13.960938 C 162.828125 13.960938 158.523438 14.019531 155.917969 14.019531 C 153.308594 14.019531 148.933594 13.972656 148.886719 13.960938 L 148.789062 13.960938 L 148.789062 14.054688 C 148.789062 14.054688 148.859375 15.375 148.859375 15.375 C 148.980469 17.601562 149.484375 54.460938 149.484375 54.832031 C 149.433594 62.410156 149.125 91.953125 149.027344 94.277344 L 148.96875 95.582031 L 148.96875 95.675781 C 148.96875 95.675781 149.0625 95.675781 149.0625 95.675781 C 149.113281 95.675781 153.417969 95.617188 156.023438 95.617188 C 158.632812 95.617188 163.007812 95.664062 163.054688 95.675781 L 163.152344 95.675781 L 163.152344 95.582031 Z M 163.128906 95.59375 " fill-opacity="1" fill-rule="nonzero"/><path fill="#ffffff" d="M 439.324219 95.59375 L 439.265625 94.277344 C 439.132812 91.867188 438.617188 63.5 438.652344 54.84375 C 438.652344 54.472656 439.011719 17.648438 439.109375 15.359375 L 439.15625 14.054688 L 439.15625 13.960938 C 439.15625 13.960938 439.074219 13.960938 439.074219 13.960938 C 439.023438 13.960938 434.71875 14.019531 432.113281 14.019531 C 429.507812 14.019531 425.128906 13.972656 425.082031 13.960938 L 424.984375 13.960938 L 424.984375 14.054688 C 424.984375 14.054688 425.070312 15.375 425.070312 15.375 C 425.1875 17.601562 425.691406 54.460938 425.691406 54.832031 C 425.644531 62.410156 425.320312 91.953125 425.226562 94.277344 L 425.175781 95.582031 L 425.175781 95.675781 C 425.175781 95.675781 425.273438 95.675781 425.273438 95.675781 C 425.320312 95.675781 429.625 95.617188 432.234375 95.617188 C 434.839844 95.617188 439.214844 95.664062 439.253906 95.675781 L 439.347656 95.675781 L 439.347656 95.582031 Z M 439.324219 95.59375 " fill-opacity="1" fill-rule="nonzero"/><path fill="#ffffff" d="M 400.613281 14.175781 C 400.613281 14.175781 397.527344 14.308594 394.011719 14.296875 C 390.484375 14.296875 385.582031 14.175781 385.535156 14.175781 L 385.4375 14.175781 L 385.4375 14.273438 C 385.449219 14.738281 386.800781 62.316406 386.683594 65.667969 L 386.632812 67.367188 C 386.621094 68.015625 386.609375 68.351562 386.550781 69.355469 C 383.167969 66.972656 310.375 14.796875 310.375 14.796875 C 310.3125 14.761719 309 13.816406 308.066406 14.320312 C 307.144531 14.824219 307.207031 15.734375 307.207031 15.769531 C 307.207031 15.769531 307.167969 17.015625 307.167969 17.015625 C 307.132812 19.636719 306.007812 94.957031 305.996094 95.726562 L 305.996094 95.820312 C 305.996094 95.820312 306.09375 95.820312 306.09375 95.820312 C 306.128906 95.820312 309.179688 95.675781 312.707031 95.6875 C 316.234375 95.6875 321.136719 95.808594 321.183594 95.808594 L 321.28125 95.808594 L 321.28125 95.714844 C 321.257812 95.234375 319.90625 49.335938 320.035156 45.980469 C 320.074219 44.832031 320.0625 44.003906 320.046875 43.203125 C 320.035156 42.484375 320.035156 41.800781 320.0625 40.988281 L 349.898438 61.824219 L 372.476562 78.359375 L 395.972656 95.917969 C 395.972656 95.917969 397.347656 96.898438 398.269531 96.394531 C 399.191406 95.890625 399.132812 94.996094 399.132812 94.957031 C 399.132812 94.957031 399.167969 93.699219 399.167969 93.699219 C 399.203125 91.078125 400.699219 15.027344 400.710938 14.257812 L 400.710938 14.164062 L 400.613281 14.164062 Z M 400.613281 14.175781 " fill-opacity="1" fill-rule="nonzero"/><path fill="#ffffff" d="M 281.9375 14.175781 C 281.9375 14.175781 278.851562 14.308594 275.335938 14.296875 C 271.808594 14.296875 266.90625 14.175781 266.855469 14.175781 L 266.761719 14.175781 L 266.761719 14.273438 C 266.773438 14.738281 268.125 62.316406 268.003906 65.667969 L 267.945312 67.367188 C 267.921875 68.015625 267.910156 68.351562 267.859375 69.355469 C 264.476562 66.972656 191.671875 14.796875 191.671875 14.796875 C 191.625 14.761719 190.296875 13.816406 189.375 14.320312 C 188.457031 14.824219 188.515625 15.734375 188.515625 15.769531 C 188.515625 15.769531 188.480469 17.015625 188.480469 17.015625 C 188.445312 19.636719 187.320312 94.957031 187.308594 95.726562 L 187.308594 95.820312 L 187.402344 95.820312 C 187.402344 95.820312 190.488281 95.675781 194.015625 95.6875 C 197.53125 95.6875 202.449219 95.808594 202.496094 95.808594 L 202.589844 95.808594 L 202.589844 95.714844 C 202.589844 95.234375 201.226562 49.335938 201.347656 45.980469 C 201.382812 44.832031 201.382812 44.003906 201.359375 43.203125 C 201.359375 42.484375 201.347656 41.800781 201.371094 40.988281 L 231.207031 61.824219 L 253.785156 78.359375 L 277.285156 95.917969 C 277.285156 95.917969 278.660156 96.898438 279.59375 96.394531 C 280.511719 95.890625 280.453125 94.996094 280.453125 94.957031 C 280.453125 94.957031 280.488281 93.699219 280.488281 93.699219 C 280.523438 91.078125 282.007812 15.027344 282.03125 14.257812 L 282.03125 14.164062 L 281.9375 14.164062 Z M 281.9375 14.175781 " fill-opacity="1" fill-rule="nonzero"/><path fill="#ffffff" d="M 132.417969 102.035156 L 130.179688 99.902344 L 103.933594 75.273438 C 103.71875 75.054688 82.359375 53.835938 80.363281 51.871094 C 87.753906 44.9375 129.726562 8.042969 130.144531 7.671875 L 130.347656 7.492188 L 130.085938 7.492188 C 130.015625 7.519531 123.316406 8.019531 118.535156 8.054688 C 113.738281 8.105469 109.015625 7.949219 108.96875 7.949219 L 108.917969 7.949219 L 108.894531 7.984375 L 108.476562 8.441406 C 102.152344 15.335938 77.40625 37.527344 71.488281 42.773438 C 69.839844 41.132812 54.578125 26.210938 54.421875 26.066406 C 48.828125 20.332031 43.503906 14.414062 38.613281 8.488281 L 38.21875 8.019531 L 38.195312 7.984375 L 38.148438 7.984375 C 38.078125 7.984375 30.851562 8.199219 26.800781 8.199219 C 22.746094 8.199219 13.429688 7.769531 13.332031 7.769531 L 13.09375 7.769531 C 13.09375 7.769531 13.261719 7.925781 13.261719 7.925781 L 15.652344 10.222656 L 39.679688 33.277344 C 39.835938 33.429688 55.800781 48.925781 60.105469 53.167969 C 58.539062 54.566406 16.574219 92.144531 7.175781 99.878906 C 7.175781 99.878906 4.472656 102.121094 4.472656 102.121094 L 4.269531 102.289062 L 4.519531 102.289062 L 12.269531 102.167969 C 12.269531 102.167969 20.089844 102.167969 20.089844 102.167969 L 27.121094 102.167969 C 27.121094 102.167969 27.15625 102.15625 27.15625 102.15625 L 27.183594 102.132812 L 27.601562 101.75 C 28.007812 101.363281 67.507812 63.738281 69.480469 62.0625 C 76.808594 68.625 83.183594 75.75 88.589844 81.917969 L 106.753906 102.121094 L 106.789062 102.167969 L 106.828125 102.167969 C 106.828125 102.167969 107.386719 102.132812 107.386719 102.132812 L 113.582031 101.953125 C 113.582031 101.953125 123.054688 101.953125 123.054688 101.953125 C 123.054688 101.953125 132.347656 102.214844 132.347656 102.214844 L 132.585938 102.214844 C 132.585938 102.214844 132.417969 102.058594 132.417969 102.058594 Z M 132.417969 102.035156 " fill-opacity="1" fill-rule="nonzero"/><path fill="#ffffff" d="M 580.449219 102.035156 L 578.199219 99.902344 L 551.949219 75.273438 C 551.734375 75.054688 530.363281 53.835938 528.390625 51.871094 C 535.769531 44.9375 577.757812 8.042969 578.175781 7.671875 L 578.378906 7.492188 L 578.105469 7.492188 C 578.042969 7.519531 571.347656 8.019531 566.550781 8.054688 C 561.757812 8.105469 557.03125 7.949219 556.984375 7.949219 L 556.949219 7.949219 L 556.914062 7.984375 L 556.496094 8.441406 C 550.15625 15.359375 525.425781 37.527344 519.507812 42.773438 C 517.855469 41.121094 502.609375 26.210938 502.453125 26.066406 C 496.855469 20.332031 491.535156 14.414062 486.644531 8.488281 L 486.261719 8.019531 L 486.238281 7.984375 L 486.191406 7.984375 C 486.117188 7.984375 478.894531 8.199219 474.839844 8.199219 C 470.785156 8.199219 461.472656 7.769531 461.375 7.769531 L 461.136719 7.769531 C 461.136719 7.769531 461.304688 7.925781 461.304688 7.925781 L 463.695312 10.222656 L 487.734375 33.277344 C 487.886719 33.429688 503.851562 48.925781 508.15625 53.167969 C 500.984375 59.597656 463.765625 92.851562 455.242188 99.878906 C 455.242188 99.878906 452.539062 102.121094 452.539062 102.121094 L 452.335938 102.289062 L 452.585938 102.289062 L 460.335938 102.167969 C 460.335938 102.167969 468.15625 102.167969 468.15625 102.167969 L 475.1875 102.167969 C 475.1875 102.167969 475.222656 102.15625 475.222656 102.15625 L 475.246094 102.132812 L 475.652344 101.75 C 476.046875 101.363281 515.558594 63.738281 517.535156 62.0625 C 524.875 68.636719 531.25 75.75 536.644531 81.917969 C 536.644531 81.917969 537.574219 82.949219 554.820312 102.121094 L 554.84375 102.167969 L 554.890625 102.167969 C 554.890625 102.167969 555.453125 102.132812 555.453125 102.132812 C 555.453125 102.132812 561.648438 101.953125 561.648438 101.953125 C 561.648438 101.953125 571.121094 101.953125 571.121094 101.953125 C 571.121094 101.953125 580.410156 102.214844 580.410156 102.214844 L 580.652344 102.214844 C 580.652344 102.214844 580.484375 102.058594 580.484375 102.058594 Z M 580.449219 102.035156 " fill-opacity="1" fill-rule="nonzero"/><g fill="#ffffff" fill-opacity="1"><g transform="translate(71.730973, 132.673391)"><g><path d="M 14.4375 -17.171875 C 14.4375 -17.117188 14.425781 -17.023438 14.40625 -16.890625 C 14.394531 -16.753906 14.375 -16.597656 14.34375 -16.421875 C 14.320312 -16.253906 14.285156 -16.078125 14.234375 -15.890625 C 14.191406 -15.710938 14.132812 -15.546875 14.0625 -15.390625 C 14 -15.242188 13.921875 -15.117188 13.828125 -15.015625 C 13.734375 -14.921875 13.628906 -14.875 13.515625 -14.875 L 7.203125 -14.875 L 6.328125 -10.5625 L 11.6875 -10.5625 C 11.8125 -10.5625 11.898438 -10.515625 11.953125 -10.421875 C 12.015625 -10.328125 12.046875 -10.195312 12.046875 -10.03125 C 12.046875 -9.96875 12.035156 -9.867188 12.015625 -9.734375 C 12.003906 -9.609375 11.984375 -9.457031 11.953125 -9.28125 C 11.929688 -9.113281 11.894531 -8.941406 11.84375 -8.765625 C 11.800781 -8.597656 11.742188 -8.441406 11.671875 -8.296875 C 11.609375 -8.148438 11.53125 -8.03125 11.4375 -7.9375 C 11.351562 -7.851562 11.253906 -7.8125 11.140625 -7.8125 L 5.796875 -7.8125 L 4.78125 -2.8125 L 11.1875 -2.8125 C 11.289062 -2.8125 11.367188 -2.765625 11.421875 -2.671875 C 11.484375 -2.578125 11.515625 -2.4375 11.515625 -2.25 C 11.515625 -2.1875 11.507812 -2.085938 11.5 -1.953125 C 11.488281 -1.816406 11.46875 -1.664062 11.4375 -1.5 C 11.40625 -1.332031 11.363281 -1.160156 11.3125 -0.984375 C 11.269531 -0.804688 11.210938 -0.644531 11.140625 -0.5 C 11.078125 -0.351562 11 -0.234375 10.90625 -0.140625 C 10.820312 -0.046875 10.71875 0 10.59375 0 L 1.703125 0 C 1.554688 0 1.425781 -0.0195312 1.3125 -0.0625 C 1.195312 -0.101562 1.097656 -0.171875 1.015625 -0.265625 C 0.941406 -0.359375 0.890625 -0.472656 0.859375 -0.609375 C 0.835938 -0.753906 0.84375 -0.929688 0.875 -1.140625 L 3.96875 -16.5625 C 4.050781 -16.957031 4.210938 -17.242188 4.453125 -17.421875 C 4.703125 -17.597656 4.976562 -17.6875 5.28125 -17.6875 L 14.078125 -17.6875 C 14.316406 -17.6875 14.4375 -17.515625 14.4375 -17.171875 Z M 14.4375 -17.171875 "/></g></g></g><g fill="#ffffff" fill-opacity="1"><g transform="translate(86.423589, 132.673391)"><g><path d="M 13.65625 -9.9375 C 13.65625 -9.625 13.632812 -9.304688 13.59375 -8.984375 C 13.550781 -8.660156 13.5 -8.332031 13.4375 -8 L 11.921875 -0.46875 C 11.898438 -0.375 11.851562 -0.289062 11.78125 -0.21875 C 11.71875 -0.15625 11.613281 -0.0976562 11.46875 -0.046875 C 11.332031 -0.00390625 11.148438 0.0234375 10.921875 0.046875 C 10.703125 0.0664062 10.425781 0.078125 10.09375 0.078125 C 9.75 0.078125 9.46875 0.0664062 9.25 0.046875 C 9.039062 0.0234375 8.878906 -0.00390625 8.765625 -0.046875 C 8.648438 -0.0976562 8.570312 -0.15625 8.53125 -0.21875 C 8.488281 -0.289062 8.472656 -0.375 8.484375 -0.46875 L 9.96875 -7.78125 C 10.007812 -8 10.039062 -8.222656 10.0625 -8.453125 C 10.09375 -8.679688 10.109375 -8.878906 10.109375 -9.046875 C 10.109375 -9.460938 10.019531 -9.800781 9.84375 -10.0625 C 9.664062 -10.320312 9.375 -10.453125 8.96875 -10.453125 C 8.59375 -10.453125 8.203125 -10.332031 7.796875 -10.09375 C 7.390625 -9.863281 7.003906 -9.546875 6.640625 -9.140625 C 6.285156 -8.734375 5.96875 -8.257812 5.6875 -7.71875 C 5.40625 -7.175781 5.207031 -6.597656 5.09375 -5.984375 L 3.984375 -0.46875 C 3.960938 -0.375 3.914062 -0.289062 3.84375 -0.21875 C 3.78125 -0.15625 3.675781 -0.0976562 3.53125 -0.046875 C 3.394531 -0.00390625 3.210938 0.0234375 2.984375 0.046875 C 2.753906 0.0664062 2.472656 0.078125 2.140625 0.078125 C 1.804688 0.078125 1.53125 0.0664062 1.3125 0.046875 C 1.101562 0.0234375 0.9375 -0.00390625 0.8125 -0.046875 C 0.6875 -0.0976562 0.601562 -0.15625 0.5625 -0.21875 C 0.53125 -0.289062 0.523438 -0.375 0.546875 -0.46875 L 3 -12.671875 C 3.007812 -12.765625 3.046875 -12.84375 3.109375 -12.90625 C 3.171875 -12.976562 3.257812 -13.035156 3.375 -13.078125 C 3.5 -13.117188 3.660156 -13.148438 3.859375 -13.171875 C 4.054688 -13.191406 4.289062 -13.203125 4.5625 -13.203125 C 4.84375 -13.203125 5.070312 -13.191406 5.25 -13.171875 C 5.4375 -13.148438 5.578125 -13.117188 5.671875 -13.078125 C 5.773438 -13.035156 5.84375 -12.976562 5.875 -12.90625 C 5.90625 -12.84375 5.910156 -12.765625 5.890625 -12.671875 L 5.5 -10.671875 C 5.6875 -10.984375 5.9375 -11.304688 6.25 -11.640625 C 6.570312 -11.972656 6.941406 -12.269531 7.359375 -12.53125 C 7.773438 -12.800781 8.226562 -13.019531 8.71875 -13.1875 C 9.207031 -13.351562 9.710938 -13.4375 10.234375 -13.4375 C 10.878906 -13.4375 11.414062 -13.34375 11.84375 -13.15625 C 12.28125 -12.96875 12.628906 -12.710938 12.890625 -12.390625 C 13.160156 -12.078125 13.351562 -11.707031 13.46875 -11.28125 C 13.59375 -10.863281 13.65625 -10.414062 13.65625 -9.9375 Z M 13.65625 -9.9375 "/></g></g></g><g fill="#ffffff" fill-opacity="1"><g transform="translate(102.223466, 132.673391)"><g><path d="M 13.25 -9.984375 C 13.25 -9.328125 13.097656 -8.734375 12.796875 -8.203125 C 12.503906 -7.679688 12.046875 -7.234375 11.421875 -6.859375 C 10.796875 -6.484375 10.003906 -6.191406 9.046875 -5.984375 C 8.085938 -5.785156 6.941406 -5.6875 5.609375 -5.6875 L 4.34375 -5.6875 C 4.3125 -5.476562 4.285156 -5.269531 4.265625 -5.0625 C 4.242188 -4.863281 4.234375 -4.675781 4.234375 -4.5 C 4.234375 -3.757812 4.425781 -3.203125 4.8125 -2.828125 C 5.195312 -2.453125 5.8125 -2.265625 6.65625 -2.265625 C 7.257812 -2.265625 7.800781 -2.304688 8.28125 -2.390625 C 8.757812 -2.484375 9.175781 -2.582031 9.53125 -2.6875 C 9.894531 -2.789062 10.191406 -2.882812 10.421875 -2.96875 C 10.660156 -3.0625 10.835938 -3.109375 10.953125 -3.109375 C 11.054688 -3.109375 11.128906 -3.070312 11.171875 -3 C 11.222656 -2.9375 11.25 -2.835938 11.25 -2.703125 C 11.25 -2.546875 11.234375 -2.367188 11.203125 -2.171875 C 11.179688 -1.972656 11.144531 -1.773438 11.09375 -1.578125 C 11.039062 -1.378906 10.972656 -1.191406 10.890625 -1.015625 C 10.816406 -0.847656 10.734375 -0.71875 10.640625 -0.625 C 10.523438 -0.519531 10.320312 -0.410156 10.03125 -0.296875 C 9.738281 -0.191406 9.390625 -0.09375 8.984375 0 C 8.578125 0.09375 8.117188 0.164062 7.609375 0.21875 C 7.097656 0.28125 6.578125 0.3125 6.046875 0.3125 C 5.171875 0.3125 4.40625 0.21875 3.75 0.03125 C 3.101562 -0.144531 2.5625 -0.421875 2.125 -0.796875 C 1.6875 -1.171875 1.359375 -1.644531 1.140625 -2.21875 C 0.921875 -2.800781 0.8125 -3.488281 0.8125 -4.28125 C 0.8125 -4.894531 0.867188 -5.546875 0.984375 -6.234375 C 1.097656 -6.929688 1.28125 -7.617188 1.53125 -8.296875 C 1.789062 -8.984375 2.117188 -9.632812 2.515625 -10.25 C 2.921875 -10.875 3.40625 -11.421875 3.96875 -11.890625 C 4.539062 -12.359375 5.195312 -12.734375 5.9375 -13.015625 C 6.6875 -13.296875 7.539062 -13.4375 8.5 -13.4375 C 9.332031 -13.4375 10.046875 -13.335938 10.640625 -13.140625 C 11.242188 -12.953125 11.734375 -12.691406 12.109375 -12.359375 C 12.492188 -12.035156 12.78125 -11.664062 12.96875 -11.25 C 13.15625 -10.84375 13.25 -10.421875 13.25 -9.984375 Z M 9.875 -9.71875 C 9.875 -10.082031 9.726562 -10.382812 9.4375 -10.625 C 9.15625 -10.875 8.738281 -11 8.1875 -11 C 7.726562 -11 7.316406 -10.914062 6.953125 -10.75 C 6.597656 -10.582031 6.285156 -10.359375 6.015625 -10.078125 C 5.742188 -9.804688 5.507812 -9.476562 5.3125 -9.09375 C 5.113281 -8.71875 4.957031 -8.316406 4.84375 -7.890625 L 5.984375 -7.890625 C 6.710938 -7.890625 7.320312 -7.9375 7.8125 -8.03125 C 8.3125 -8.125 8.710938 -8.253906 9.015625 -8.421875 C 9.316406 -8.585938 9.535156 -8.78125 9.671875 -9 C 9.804688 -9.226562 9.875 -9.46875 9.875 -9.71875 Z M 9.875 -9.71875 "/></g></g></g><g fill="#ffffff" fill-opacity="1"><g transform="translate(117.011763, 132.673391)"><g><path d="M 10.671875 -12.859375 C 10.671875 -12.785156 10.660156 -12.664062 10.640625 -12.5 C 10.617188 -12.34375 10.585938 -12.15625 10.546875 -11.9375 C 10.515625 -11.71875 10.472656 -11.488281 10.421875 -11.25 C 10.367188 -11.019531 10.304688 -10.804688 10.234375 -10.609375 C 10.160156 -10.410156 10.082031 -10.242188 10 -10.109375 C 9.914062 -9.984375 9.820312 -9.921875 9.71875 -9.921875 C 9.632812 -9.921875 9.550781 -9.9375 9.46875 -9.96875 C 9.394531 -10 9.304688 -10.03125 9.203125 -10.0625 C 9.097656 -10.101562 8.988281 -10.140625 8.875 -10.171875 C 8.757812 -10.203125 8.625 -10.21875 8.46875 -10.21875 C 8.15625 -10.21875 7.820312 -10.097656 7.46875 -9.859375 C 7.125 -9.617188 6.789062 -9.304688 6.46875 -8.921875 C 6.144531 -8.535156 5.859375 -8.082031 5.609375 -7.5625 C 5.359375 -7.050781 5.179688 -6.515625 5.078125 -5.953125 L 3.984375 -0.46875 C 3.960938 -0.375 3.914062 -0.289062 3.84375 -0.21875 C 3.78125 -0.15625 3.675781 -0.0976562 3.53125 -0.046875 C 3.394531 -0.00390625 3.210938 0.0234375 2.984375 0.046875 C 2.753906 0.0664062 2.472656 0.078125 2.140625 0.078125 C 1.804688 0.078125 1.53125 0.0664062 1.3125 0.046875 C 1.101562 0.0234375 0.9375 -0.00390625 0.8125 -0.046875 C 0.6875 -0.0976562 0.601562 -0.15625 0.5625 -0.21875 C 0.53125 -0.289062 0.523438 -0.375 0.546875 -0.46875 L 2.984375 -12.671875 C 3.003906 -12.765625 3.046875 -12.84375 3.109375 -12.90625 C 3.171875 -12.976562 3.257812 -13.035156 3.375 -13.078125 C 3.5 -13.117188 3.660156 -13.148438 3.859375 -13.171875 C 4.054688 -13.191406 4.289062 -13.203125 4.5625 -13.203125 C 4.84375 -13.203125 5.070312 -13.191406 5.25 -13.171875 C 5.4375 -13.148438 5.578125 -13.117188 5.671875 -13.078125 C 5.773438 -13.035156 5.84375 -12.976562 5.875 -12.90625 C 5.90625 -12.84375 5.910156 -12.765625 5.890625 -12.671875 L 5.515625 -10.734375 C 5.734375 -11.128906 5.984375 -11.488281 6.265625 -11.8125 C 6.554688 -12.144531 6.863281 -12.429688 7.1875 -12.671875 C 7.507812 -12.910156 7.84375 -13.097656 8.1875 -13.234375 C 8.53125 -13.367188 8.875 -13.4375 9.21875 -13.4375 C 9.351562 -13.4375 9.488281 -13.425781 9.625 -13.40625 C 9.769531 -13.394531 9.90625 -13.375 10.03125 -13.34375 C 10.15625 -13.3125 10.265625 -13.273438 10.359375 -13.234375 C 10.453125 -13.203125 10.523438 -13.160156 10.578125 -13.109375 C 10.640625 -13.054688 10.671875 -12.972656 10.671875 -12.859375 Z M 10.671875 -12.859375 "/></g></g></g><g fill="#ffffff" fill-opacity="1"><g transform="translate(127.904129, 132.673391)"><g><path d="M 11.765625 0.03125 C 11.597656 0.851562 11.335938 1.570312 10.984375 2.1875 C 10.640625 2.8125 10.1875 3.328125 9.625 3.734375 C 9.0625 4.148438 8.375 4.460938 7.5625 4.671875 C 6.757812 4.878906 5.820312 4.984375 4.75 4.984375 C 3.96875 4.984375 3.269531 4.921875 2.65625 4.796875 C 2.039062 4.679688 1.53125 4.523438 1.125 4.328125 C 0.976562 4.253906 0.875 4.171875 0.8125 4.078125 C 0.757812 3.992188 0.734375 3.867188 0.734375 3.703125 C 0.734375 3.648438 0.738281 3.554688 0.75 3.421875 C 0.757812 3.296875 0.78125 3.15625 0.8125 3 C 0.84375 2.851562 0.878906 2.691406 0.921875 2.515625 C 0.972656 2.347656 1.03125 2.195312 1.09375 2.0625 C 1.164062 1.9375 1.242188 1.828125 1.328125 1.734375 C 1.410156 1.648438 1.503906 1.609375 1.609375 1.609375 C 1.722656 1.609375 1.859375 1.644531 2.015625 1.71875 C 2.171875 1.800781 2.378906 1.890625 2.640625 1.984375 C 2.910156 2.078125 3.238281 2.160156 3.625 2.234375 C 4.019531 2.316406 4.507812 2.359375 5.09375 2.359375 C 5.550781 2.359375 5.960938 2.320312 6.328125 2.25 C 6.703125 2.175781 7.023438 2.054688 7.296875 1.890625 C 7.578125 1.722656 7.800781 1.507812 7.96875 1.25 C 8.132812 1 8.253906 0.6875 8.328125 0.3125 C 8.441406 -0.28125 8.554688 -0.773438 8.671875 -1.171875 C 8.796875 -1.578125 8.910156 -1.90625 9.015625 -2.15625 C 8.847656 -1.851562 8.609375 -1.554688 8.296875 -1.265625 C 7.992188 -0.972656 7.644531 -0.707031 7.25 -0.46875 C 6.863281 -0.226562 6.441406 -0.0390625 5.984375 0.09375 C 5.535156 0.238281 5.085938 0.3125 4.640625 0.3125 C 3.929688 0.3125 3.335938 0.195312 2.859375 -0.03125 C 2.378906 -0.269531 1.988281 -0.597656 1.6875 -1.015625 C 1.394531 -1.441406 1.179688 -1.9375 1.046875 -2.5 C 0.910156 -3.0625 0.84375 -3.671875 0.84375 -4.328125 C 0.84375 -4.921875 0.894531 -5.5625 1 -6.25 C 1.113281 -6.9375 1.285156 -7.613281 1.515625 -8.28125 C 1.753906 -8.957031 2.050781 -9.601562 2.40625 -10.21875 C 2.757812 -10.84375 3.1875 -11.394531 3.6875 -11.875 C 4.1875 -12.351562 4.753906 -12.734375 5.390625 -13.015625 C 6.035156 -13.296875 6.757812 -13.4375 7.5625 -13.4375 C 8.320312 -13.4375 8.992188 -13.28125 9.578125 -12.96875 C 10.160156 -12.65625 10.671875 -12.195312 11.109375 -11.59375 L 11.328125 -12.671875 C 11.359375 -12.867188 11.5 -13.003906 11.75 -13.078125 C 12 -13.160156 12.40625 -13.203125 12.96875 -13.203125 C 13.238281 -13.203125 13.460938 -13.191406 13.640625 -13.171875 C 13.828125 -13.148438 13.972656 -13.117188 14.078125 -13.078125 C 14.179688 -13.035156 14.25 -12.976562 14.28125 -12.90625 C 14.320312 -12.84375 14.332031 -12.765625 14.3125 -12.671875 Z M 10.171875 -9.03125 C 9.847656 -9.53125 9.492188 -9.90625 9.109375 -10.15625 C 8.722656 -10.40625 8.273438 -10.53125 7.765625 -10.53125 C 7.378906 -10.53125 7.03125 -10.4375 6.71875 -10.25 C 6.40625 -10.070312 6.125 -9.828125 5.875 -9.515625 C 5.625 -9.210938 5.40625 -8.859375 5.21875 -8.453125 C 5.03125 -8.054688 4.875 -7.640625 4.75 -7.203125 C 4.625 -6.765625 4.53125 -6.328125 4.46875 -5.890625 C 4.414062 -5.453125 4.390625 -5.039062 4.390625 -4.65625 C 4.390625 -4.34375 4.414062 -4.054688 4.46875 -3.796875 C 4.519531 -3.546875 4.601562 -3.332031 4.71875 -3.15625 C 4.832031 -2.976562 4.976562 -2.835938 5.15625 -2.734375 C 5.332031 -2.640625 5.550781 -2.59375 5.8125 -2.59375 C 6.207031 -2.59375 6.613281 -2.710938 7.03125 -2.953125 C 7.457031 -3.203125 7.851562 -3.53125 8.21875 -3.9375 C 8.582031 -4.351562 8.898438 -4.835938 9.171875 -5.390625 C 9.453125 -5.953125 9.660156 -6.546875 9.796875 -7.171875 Z M 10.171875 -9.03125 "/></g></g></g><g fill="#ffffff" fill-opacity="1"><g transform="translate(143.717683, 132.673391)"><g><path d="M 7.5 -16.765625 C 7.4375 -16.421875 7.347656 -16.132812 7.234375 -15.90625 C 7.128906 -15.675781 6.984375 -15.488281 6.796875 -15.34375 C 6.617188 -15.207031 6.398438 -15.109375 6.140625 -15.046875 C 5.878906 -14.984375 5.550781 -14.953125 5.15625 -14.953125 C 4.769531 -14.953125 4.457031 -14.984375 4.21875 -15.046875 C 3.976562 -15.109375 3.796875 -15.207031 3.671875 -15.34375 C 3.546875 -15.488281 3.472656 -15.675781 3.453125 -15.90625 C 3.441406 -16.132812 3.472656 -16.421875 3.546875 -16.765625 C 3.609375 -17.085938 3.691406 -17.363281 3.796875 -17.59375 C 3.910156 -17.820312 4.054688 -18.007812 4.234375 -18.15625 C 4.421875 -18.300781 4.644531 -18.40625 4.90625 -18.46875 C 5.175781 -18.53125 5.503906 -18.5625 5.890625 -18.5625 C 6.273438 -18.5625 6.585938 -18.53125 6.828125 -18.46875 C 7.066406 -18.40625 7.25 -18.300781 7.375 -18.15625 C 7.5 -18.007812 7.566406 -17.820312 7.578125 -17.59375 C 7.597656 -17.363281 7.570312 -17.085938 7.5 -16.765625 Z M 3.984375 -0.46875 C 3.960938 -0.375 3.914062 -0.289062 3.84375 -0.21875 C 3.78125 -0.15625 3.675781 -0.0976562 3.53125 -0.046875 C 3.394531 -0.00390625 3.210938 0.0234375 2.984375 0.046875 C 2.753906 0.0664062 2.472656 0.078125 2.140625 0.078125 C 1.804688 0.078125 1.53125 0.0664062 1.3125 0.046875 C 1.101562 0.0234375 0.9375 -0.00390625 0.8125 -0.046875 C 0.6875 -0.0976562 0.601562 -0.15625 0.5625 -0.21875 C 0.53125 -0.289062 0.523438 -0.375 0.546875 -0.46875 L 2.96875 -12.640625 C 2.988281 -12.722656 3.03125 -12.796875 3.09375 -12.859375 C 3.164062 -12.929688 3.269531 -12.992188 3.40625 -13.046875 C 3.550781 -13.097656 3.734375 -13.132812 3.953125 -13.15625 C 4.179688 -13.1875 4.460938 -13.203125 4.796875 -13.203125 C 5.140625 -13.203125 5.414062 -13.1875 5.625 -13.15625 C 5.84375 -13.132812 6.007812 -13.097656 6.125 -13.046875 C 6.25 -12.992188 6.328125 -12.929688 6.359375 -12.859375 C 6.398438 -12.796875 6.414062 -12.722656 6.40625 -12.640625 Z M 3.984375 -0.46875 "/></g></g></g><g fill="#ffffff" fill-opacity="1"><g transform="translate(151.629996, 132.673391)"><g><path d="M 11.109375 -12.640625 C 11.109375 -12.566406 11.097656 -12.460938 11.078125 -12.328125 C 11.054688 -12.191406 11.03125 -12.046875 11 -11.890625 C 10.976562 -11.734375 10.953125 -11.582031 10.921875 -11.4375 C 10.890625 -11.289062 10.863281 -11.179688 10.84375 -11.109375 C 10.78125 -10.867188 10.6875 -10.648438 10.5625 -10.453125 C 10.445312 -10.265625 10.285156 -10.046875 10.078125 -9.796875 L 4.3125 -2.765625 L 8.953125 -2.765625 C 9.085938 -2.765625 9.1875 -2.71875 9.25 -2.625 C 9.3125 -2.53125 9.34375 -2.382812 9.34375 -2.1875 C 9.34375 -2.113281 9.332031 -2.003906 9.3125 -1.859375 C 9.300781 -1.722656 9.28125 -1.570312 9.25 -1.40625 C 9.21875 -1.238281 9.175781 -1.070312 9.125 -0.90625 C 9.070312 -0.75 9.007812 -0.601562 8.9375 -0.46875 C 8.875 -0.332031 8.796875 -0.21875 8.703125 -0.125 C 8.617188 -0.0390625 8.519531 0 8.40625 0 L 0.359375 0 C 0.179688 0 0.0507812 -0.0507812 -0.03125 -0.15625 C -0.125 -0.257812 -0.171875 -0.421875 -0.171875 -0.640625 C -0.171875 -0.710938 -0.160156 -0.8125 -0.140625 -0.9375 C -0.128906 -1.0625 -0.109375 -1.1875 -0.078125 -1.3125 C -0.0546875 -1.445312 -0.03125 -1.578125 0 -1.703125 C 0.03125 -1.828125 0.0546875 -1.925781 0.078125 -2 C 0.109375 -2.09375 0.140625 -2.1875 0.171875 -2.28125 C 0.203125 -2.375 0.242188 -2.46875 0.296875 -2.5625 C 0.359375 -2.664062 0.429688 -2.773438 0.515625 -2.890625 C 0.609375 -3.015625 0.722656 -3.15625 0.859375 -3.3125 L 6.6875 -10.359375 L 2.53125 -10.359375 C 2.40625 -10.359375 2.304688 -10.40625 2.234375 -10.5 C 2.171875 -10.59375 2.140625 -10.753906 2.140625 -10.984375 C 2.140625 -11.066406 2.144531 -11.179688 2.15625 -11.328125 C 2.164062 -11.472656 2.1875 -11.617188 2.21875 -11.765625 C 2.25 -11.921875 2.289062 -12.082031 2.34375 -12.25 C 2.394531 -12.414062 2.457031 -12.5625 2.53125 -12.6875 C 2.601562 -12.8125 2.679688 -12.914062 2.765625 -13 C 2.859375 -13.082031 2.960938 -13.125 3.078125 -13.125 L 10.609375 -13.125 C 10.796875 -13.125 10.925781 -13.078125 11 -12.984375 C 11.070312 -12.898438 11.109375 -12.785156 11.109375 -12.640625 Z M 11.109375 -12.640625 "/></g></g></g><g fill="#ffffff" fill-opacity="1"><g transform="translate(163.793663, 132.673391)"><g><path d="M 7.5 -16.765625 C 7.4375 -16.421875 7.347656 -16.132812 7.234375 -15.90625 C 7.128906 -15.675781 6.984375 -15.488281 6.796875 -15.34375 C 6.617188 -15.207031 6.398438 -15.109375 6.140625 -15.046875 C 5.878906 -14.984375 5.550781 -14.953125 5.15625 -14.953125 C 4.769531 -14.953125 4.457031 -14.984375 4.21875 -15.046875 C 3.976562 -15.109375 3.796875 -15.207031 3.671875 -15.34375 C 3.546875 -15.488281 3.472656 -15.675781 3.453125 -15.90625 C 3.441406 -16.132812 3.472656 -16.421875 3.546875 -16.765625 C 3.609375 -17.085938 3.691406 -17.363281 3.796875 -17.59375 C 3.910156 -17.820312 4.054688 -18.007812 4.234375 -18.15625 C 4.421875 -18.300781 4.644531 -18.40625 4.90625 -18.46875 C 5.175781 -18.53125 5.503906 -18.5625 5.890625 -18.5625 C 6.273438 -18.5625 6.585938 -18.53125 6.828125 -18.46875 C 7.066406 -18.40625 7.25 -18.300781 7.375 -18.15625 C 7.5 -18.007812 7.566406 -17.820312 7.578125 -17.59375 C 7.597656 -17.363281 7.570312 -17.085938 7.5 -16.765625 Z M 3.984375 -0.46875 C 3.960938 -0.375 3.914062 -0.289062 3.84375 -0.21875 C 3.78125 -0.15625 3.675781 -0.0976562 3.53125 -0.046875 C 3.394531 -0.00390625 3.210938 0.0234375 2.984375 0.046875 C 2.753906 0.0664062 2.472656 0.078125 2.140625 0.078125 C 1.804688 0.078125 1.53125 0.0664062 1.3125 0.046875 C 1.101562 0.0234375 0.9375 -0.00390625 0.8125 -0.046875 C 0.6875 -0.0976562 0.601562 -0.15625 0.5625 -0.21875 C 0.53125 -0.289062 0.523438 -0.375 0.546875 -0.46875 L 2.96875 -12.640625 C 2.988281 -12.722656 3.03125 -12.796875 3.09375 -12.859375 C 3.164062 -12.929688 3.269531 -12.992188 3.40625 -13.046875 C 3.550781 -13.097656 3.734375 -13.132812 3.953125 -13.15625 C 4.179688 -13.1875 4.460938 -13.203125 4.796875 -13.203125 C 5.140625 -13.203125 5.414062 -13.1875 5.625 -13.15625 C 5.84375 -13.132812 6.007812 -13.097656 6.125 -13.046875 C 6.25 -12.992188 6.328125 -12.929688 6.359375 -12.859375 C 6.398438 -12.796875 6.414062 -12.722656 6.40625 -12.640625 Z M 3.984375 -0.46875 "/></g></g></g><g fill="#ffffff" fill-opacity="1"><g transform="translate(171.70597, 132.673391)"><g><path d="M 13.65625 -9.9375 C 13.65625 -9.625 13.632812 -9.304688 13.59375 -8.984375 C 13.550781 -8.660156 13.5 -8.332031 13.4375 -8 L 11.921875 -0.46875 C 11.898438 -0.375 11.851562 -0.289062 11.78125 -0.21875 C 11.71875 -0.15625 11.613281 -0.0976562 11.46875 -0.046875 C 11.332031 -0.00390625 11.148438 0.0234375 10.921875 0.046875 C 10.703125 0.0664062 10.425781 0.078125 10.09375 0.078125 C 9.75 0.078125 9.46875 0.0664062 9.25 0.046875 C 9.039062 0.0234375 8.878906 -0.00390625 8.765625 -0.046875 C 8.648438 -0.0976562 8.570312 -0.15625 8.53125 -0.21875 C 8.488281 -0.289062 8.472656 -0.375 8.484375 -0.46875 L 9.96875 -7.78125 C 10.007812 -8 10.039062 -8.222656 10.0625 -8.453125 C 10.09375 -8.679688 10.109375 -8.878906 10.109375 -9.046875 C 10.109375 -9.460938 10.019531 -9.800781 9.84375 -10.0625 C 9.664062 -10.320312 9.375 -10.453125 8.96875 -10.453125 C 8.59375 -10.453125 8.203125 -10.332031 7.796875 -10.09375 C 7.390625 -9.863281 7.003906 -9.546875 6.640625 -9.140625 C 6.285156 -8.734375 5.96875 -8.257812 5.6875 -7.71875 C 5.40625 -7.175781 5.207031 -6.597656 5.09375 -5.984375 L 3.984375 -0.46875 C 3.960938 -0.375 3.914062 -0.289062 3.84375 -0.21875 C 3.78125 -0.15625 3.675781 -0.0976562 3.53125 -0.046875 C 3.394531 -0.00390625 3.210938 0.0234375 2.984375 0.046875 C 2.753906 0.0664062 2.472656 0.078125 2.140625 0.078125 C 1.804688 0.078125 1.53125 0.0664062 1.3125 0.046875 C 1.101562 0.0234375 0.9375 -0.00390625 0.8125 -0.046875 C 0.6875 -0.0976562 0.601562 -0.15625 0.5625 -0.21875 C 0.53125 -0.289062 0.523438 -0.375 0.546875 -0.46875 L 3 -12.671875 C 3.007812 -12.765625 3.046875 -12.84375 3.109375 -12.90625 C 3.171875 -12.976562 3.257812 -13.035156 3.375 -13.078125 C 3.5 -13.117188 3.660156 -13.148438 3.859375 -13.171875 C 4.054688 -13.191406 4.289062 -13.203125 4.5625 -13.203125 C 4.84375 -13.203125 5.070312 -13.191406 5.25 -13.171875 C 5.4375 -13.148438 5.578125 -13.117188 5.671875 -13.078125 C 5.773438 -13.035156 5.84375 -12.976562 5.875 -12.90625 C 5.90625 -12.84375 5.910156 -12.765625 5.890625 -12.671875 L 5.5 -10.671875 C 5.6875 -10.984375 5.9375 -11.304688 6.25 -11.640625 C 6.570312 -11.972656 6.941406 -12.269531 7.359375 -12.53125 C 7.773438 -12.800781 8.226562 -13.019531 8.71875 -13.1875 C 9.207031 -13.351562 9.710938 -13.4375 10.234375 -13.4375 C 10.878906 -13.4375 11.414062 -13.34375 11.84375 -13.15625 C 12.28125 -12.96875 12.628906 -12.710938 12.890625 -12.390625 C 13.160156 -12.078125 13.351562 -11.707031 13.46875 -11.28125 C 13.59375 -10.863281 13.65625 -10.414062 13.65625 -9.9375 Z M 13.65625 -9.9375 "/></g></g></g><g fill="#ffffff" fill-opacity="1"><g transform="translate(187.505843, 132.673391)"><g><path d="M 11.765625 0.03125 C 11.597656 0.851562 11.335938 1.570312 10.984375 2.1875 C 10.640625 2.8125 10.1875 3.328125 9.625 3.734375 C 9.0625 4.148438 8.375 4.460938 7.5625 4.671875 C 6.757812 4.878906 5.820312 4.984375 4.75 4.984375 C 3.96875 4.984375 3.269531 4.921875 2.65625 4.796875 C 2.039062 4.679688 1.53125 4.523438 1.125 4.328125 C 0.976562 4.253906 0.875 4.171875 0.8125 4.078125 C 0.757812 3.992188 0.734375 3.867188 0.734375 3.703125 C 0.734375 3.648438 0.738281 3.554688 0.75 3.421875 C 0.757812 3.296875 0.78125 3.15625 0.8125 3 C 0.84375 2.851562 0.878906 2.691406 0.921875 2.515625 C 0.972656 2.347656 1.03125 2.195312 1.09375 2.0625 C 1.164062 1.9375 1.242188 1.828125 1.328125 1.734375 C 1.410156 1.648438 1.503906 1.609375 1.609375 1.609375 C 1.722656 1.609375 1.859375 1.644531 2.015625 1.71875 C 2.171875 1.800781 2.378906 1.890625 2.640625 1.984375 C 2.910156 2.078125 3.238281 2.160156 3.625 2.234375 C 4.019531 2.316406 4.507812 2.359375 5.09375 2.359375 C 5.550781 2.359375 5.960938 2.320312 6.328125 2.25 C 6.703125 2.175781 7.023438 2.054688 7.296875 1.890625 C 7.578125 1.722656 7.800781 1.507812 7.96875 1.25 C 8.132812 1 8.253906 0.6875 8.328125 0.3125 C 8.441406 -0.28125 8.554688 -0.773438 8.671875 -1.171875 C 8.796875 -1.578125 8.910156 -1.90625 9.015625 -2.15625 C 8.847656 -1.851562 8.609375 -1.554688 8.296875 -1.265625 C 7.992188 -0.972656 7.644531 -0.707031 7.25 -0.46875 C 6.863281 -0.226562 6.441406 -0.0390625 5.984375 0.09375 C 5.535156 0.238281 5.085938 0.3125 4.640625 0.3125 C 3.929688 0.3125 3.335938 0.195312 2.859375 -0.03125 C 2.378906 -0.269531 1.988281 -0.597656 1.6875 -1.015625 C 1.394531 -1.441406 1.179688 -1.9375 1.046875 -2.5 C 0.910156 -3.0625 0.84375 -3.671875 0.84375 -4.328125 C 0.84375 -4.921875 0.894531 -5.5625 1 -6.25 C 1.113281 -6.9375 1.285156 -7.613281 1.515625 -8.28125 C 1.753906 -8.957031 2.050781 -9.601562 2.40625 -10.21875 C 2.757812 -10.84375 3.1875 -11.394531 3.6875 -11.875 C 4.1875 -12.351562 4.753906 -12.734375 5.390625 -13.015625 C 6.035156 -13.296875 6.757812 -13.4375 7.5625 -13.4375 C 8.320312 -13.4375 8.992188 -13.28125 9.578125 -12.96875 C 10.160156 -12.65625 10.671875 -12.195312 11.109375 -11.59375 L 11.328125 -12.671875 C 11.359375 -12.867188 11.5 -13.003906 11.75 -13.078125 C 12 -13.160156 12.40625 -13.203125 12.96875 -13.203125 C 13.238281 -13.203125 13.460938 -13.191406 13.640625 -13.171875 C 13.828125 -13.148438 13.972656 -13.117188 14.078125 -13.078125 C 14.179688 -13.035156 14.25 -12.976562 14.28125 -12.90625 C 14.320312 -12.84375 14.332031 -12.765625 14.3125 -12.671875 Z M 10.171875 -9.03125 C 9.847656 -9.53125 9.492188 -9.90625 9.109375 -10.15625 C 8.722656 -10.40625 8.273438 -10.53125 7.765625 -10.53125 C 7.378906 -10.53125 7.03125 -10.4375 6.71875 -10.25 C 6.40625 -10.070312 6.125 -9.828125 5.875 -9.515625 C 5.625 -9.210938 5.40625 -8.859375 5.21875 -8.453125 C 5.03125 -8.054688 4.875 -7.640625 4.75 -7.203125 C 4.625 -6.765625 4.53125 -6.328125 4.46875 -5.890625 C 4.414062 -5.453125 4.390625 -5.039062 4.390625 -4.65625 C 4.390625 -4.34375 4.414062 -4.054688 4.46875 -3.796875 C 4.519531 -3.546875 4.601562 -3.332031 4.71875 -3.15625 C 4.832031 -2.976562 4.976562 -2.835938 5.15625 -2.734375 C 5.332031 -2.640625 5.550781 -2.59375 5.8125 -2.59375 C 6.207031 -2.59375 6.613281 -2.710938 7.03125 -2.953125 C 7.457031 -3.203125 7.851562 -3.53125 8.21875 -3.9375 C 8.582031 -4.351562 8.898438 -4.835938 9.171875 -5.390625 C 9.453125 -5.953125 9.660156 -6.546875 9.796875 -7.171875 Z M 10.171875 -9.03125 "/></g></g></g><g fill="#ffffff" fill-opacity="1"><g transform="translate(203.319391, 132.673391)"><g/></g></g><g fill="#ffffff" fill-opacity="1"><g transform="translate(210.684899, 132.673391)"><g><path d="M 14 -8.796875 C 14 -8.203125 13.941406 -7.5625 13.828125 -6.875 C 13.722656 -6.195312 13.554688 -5.519531 13.328125 -4.84375 C 13.097656 -4.164062 12.804688 -3.515625 12.453125 -2.890625 C 12.097656 -2.265625 11.671875 -1.710938 11.171875 -1.234375 C 10.679688 -0.765625 10.113281 -0.390625 9.46875 -0.109375 C 8.820312 0.171875 8.097656 0.3125 7.296875 0.3125 C 6.929688 0.3125 6.585938 0.273438 6.265625 0.203125 C 5.953125 0.128906 5.660156 0.03125 5.390625 -0.09375 C 5.117188 -0.226562 4.875 -0.382812 4.65625 -0.5625 C 4.4375 -0.738281 4.25 -0.929688 4.09375 -1.140625 L 3.015625 4.375 C 2.992188 4.46875 2.945312 4.550781 2.875 4.625 C 2.8125 4.695312 2.707031 4.753906 2.5625 4.796875 C 2.425781 4.847656 2.242188 4.890625 2.015625 4.921875 C 1.785156 4.953125 1.5 4.96875 1.15625 4.96875 C 0.820312 4.96875 0.550781 4.953125 0.34375 4.921875 C 0.132812 4.890625 -0.03125 4.847656 -0.15625 4.796875 C -0.28125 4.753906 -0.359375 4.695312 -0.390625 4.625 C -0.429688 4.550781 -0.441406 4.46875 -0.421875 4.375 L 3 -12.671875 C 3.03125 -12.867188 3.164062 -13.003906 3.40625 -13.078125 C 3.65625 -13.160156 4.066406 -13.203125 4.640625 -13.203125 C 4.921875 -13.203125 5.148438 -13.191406 5.328125 -13.171875 C 5.503906 -13.148438 5.644531 -13.117188 5.75 -13.078125 C 5.851562 -13.035156 5.921875 -12.976562 5.953125 -12.90625 C 5.992188 -12.84375 6.003906 -12.765625 5.984375 -12.671875 L 5.609375 -10.6875 C 5.742188 -10.988281 5.957031 -11.300781 6.25 -11.625 C 6.550781 -11.945312 6.90625 -12.242188 7.3125 -12.515625 C 7.726562 -12.785156 8.1875 -13.003906 8.6875 -13.171875 C 9.1875 -13.347656 9.703125 -13.4375 10.234375 -13.4375 C 10.929688 -13.4375 11.519531 -13.316406 12 -13.078125 C 12.476562 -12.835938 12.863281 -12.503906 13.15625 -12.078125 C 13.457031 -11.660156 13.671875 -11.171875 13.796875 -10.609375 C 13.929688 -10.046875 14 -9.441406 14 -8.796875 Z M 10.453125 -8.484375 C 10.453125 -8.796875 10.425781 -9.078125 10.375 -9.328125 C 10.332031 -9.585938 10.253906 -9.804688 10.140625 -9.984375 C 10.023438 -10.160156 9.878906 -10.296875 9.703125 -10.390625 C 9.523438 -10.484375 9.304688 -10.53125 9.046875 -10.53125 C 8.640625 -10.53125 8.226562 -10.40625 7.8125 -10.15625 C 7.394531 -9.914062 7.003906 -9.585938 6.640625 -9.171875 C 6.273438 -8.765625 5.953125 -8.285156 5.671875 -7.734375 C 5.390625 -7.179688 5.191406 -6.59375 5.078125 -5.96875 L 4.6875 -4.109375 C 5.007812 -3.597656 5.363281 -3.21875 5.75 -2.96875 C 6.132812 -2.71875 6.582031 -2.59375 7.09375 -2.59375 C 7.46875 -2.59375 7.8125 -2.679688 8.125 -2.859375 C 8.4375 -3.046875 8.71875 -3.289062 8.96875 -3.59375 C 9.226562 -3.90625 9.445312 -4.257812 9.625 -4.65625 C 9.8125 -5.0625 9.96875 -5.484375 10.09375 -5.921875 C 10.21875 -6.359375 10.304688 -6.796875 10.359375 -7.234375 C 10.421875 -7.679688 10.453125 -8.097656 10.453125 -8.484375 Z M 10.453125 -8.484375 "/></g></g></g><g fill="#ffffff" fill-opacity="1"><g transform="translate(226.498447, 132.673391)"><g><path d="M 13.25 -9.984375 C 13.25 -9.328125 13.097656 -8.734375 12.796875 -8.203125 C 12.503906 -7.679688 12.046875 -7.234375 11.421875 -6.859375 C 10.796875 -6.484375 10.003906 -6.191406 9.046875 -5.984375 C 8.085938 -5.785156 6.941406 -5.6875 5.609375 -5.6875 L 4.34375 -5.6875 C 4.3125 -5.476562 4.285156 -5.269531 4.265625 -5.0625 C 4.242188 -4.863281 4.234375 -4.675781 4.234375 -4.5 C 4.234375 -3.757812 4.425781 -3.203125 4.8125 -2.828125 C 5.195312 -2.453125 5.8125 -2.265625 6.65625 -2.265625 C 7.257812 -2.265625 7.800781 -2.304688 8.28125 -2.390625 C 8.757812 -2.484375 9.175781 -2.582031 9.53125 -2.6875 C 9.894531 -2.789062 10.191406 -2.882812 10.421875 -2.96875 C 10.660156 -3.0625 10.835938 -3.109375 10.953125 -3.109375 C 11.054688 -3.109375 11.128906 -3.070312 11.171875 -3 C 11.222656 -2.9375 11.25 -2.835938 11.25 -2.703125 C 11.25 -2.546875 11.234375 -2.367188 11.203125 -2.171875 C 11.179688 -1.972656 11.144531 -1.773438 11.09375 -1.578125 C 11.039062 -1.378906 10.972656 -1.191406 10.890625 -1.015625 C 10.816406 -0.847656 10.734375 -0.71875 10.640625 -0.625 C 10.523438 -0.519531 10.320312 -0.410156 10.03125 -0.296875 C 9.738281 -0.191406 9.390625 -0.09375 8.984375 0 C 8.578125 0.09375 8.117188 0.164062 7.609375 0.21875 C 7.097656 0.28125 6.578125 0.3125 6.046875 0.3125 C 5.171875 0.3125 4.40625 0.21875 3.75 0.03125 C 3.101562 -0.144531 2.5625 -0.421875 2.125 -0.796875 C 1.6875 -1.171875 1.359375 -1.644531 1.140625 -2.21875 C 0.921875 -2.800781 0.8125 -3.488281 0.8125 -4.28125 C 0.8125 -4.894531 0.867188 -5.546875 0.984375 -6.234375 C 1.097656 -6.929688 1.28125 -7.617188 1.53125 -8.296875 C 1.789062 -8.984375 2.117188 -9.632812 2.515625 -10.25 C 2.921875 -10.875 3.40625 -11.421875 3.96875 -11.890625 C 4.539062 -12.359375 5.195312 -12.734375 5.9375 -13.015625 C 6.6875 -13.296875 7.539062 -13.4375 8.5 -13.4375 C 9.332031 -13.4375 10.046875 -13.335938 10.640625 -13.140625 C 11.242188 -12.953125 11.734375 -12.691406 12.109375 -12.359375 C 12.492188 -12.035156 12.78125 -11.664062 12.96875 -11.25 C 13.15625 -10.84375 13.25 -10.421875 13.25 -9.984375 Z M 9.875 -9.71875 C 9.875 -10.082031 9.726562 -10.382812 9.4375 -10.625 C 9.15625 -10.875 8.738281 -11 8.1875 -11 C 7.726562 -11 7.316406 -10.914062 6.953125 -10.75 C 6.597656 -10.582031 6.285156 -10.359375 6.015625 -10.078125 C 5.742188 -9.804688 5.507812 -9.476562 5.3125 -9.09375 C 5.113281 -8.71875 4.957031 -8.316406 4.84375 -7.890625 L 5.984375 -7.890625 C 6.710938 -7.890625 7.320312 -7.9375 7.8125 -8.03125 C 8.3125 -8.125 8.710938 -8.253906 9.015625 -8.421875 C 9.316406 -8.585938 9.535156 -8.78125 9.671875 -9 C 9.804688 -9.226562 9.875 -9.46875 9.875 -9.71875 Z M 9.875 -9.71875 "/></g></g></g><g fill="#ffffff" fill-opacity="1"><g transform="translate(241.286743, 132.673391)"><g><path d="M 14 -8.5625 C 14 -7.90625 13.9375 -7.226562 13.8125 -6.53125 C 13.6875 -5.84375 13.492188 -5.164062 13.234375 -4.5 C 12.972656 -3.84375 12.632812 -3.222656 12.21875 -2.640625 C 11.800781 -2.066406 11.300781 -1.554688 10.71875 -1.109375 C 10.144531 -0.671875 9.484375 -0.320312 8.734375 -0.0625 C 7.984375 0.1875 7.140625 0.3125 6.203125 0.3125 C 5.285156 0.3125 4.488281 0.207031 3.8125 0 C 3.144531 -0.21875 2.585938 -0.535156 2.140625 -0.953125 C 1.703125 -1.367188 1.375 -1.878906 1.15625 -2.484375 C 0.9375 -3.085938 0.828125 -3.78125 0.828125 -4.5625 C 0.828125 -5.21875 0.882812 -5.890625 1 -6.578125 C 1.125 -7.273438 1.316406 -7.953125 1.578125 -8.609375 C 1.847656 -9.265625 2.191406 -9.882812 2.609375 -10.46875 C 3.023438 -11.0625 3.519531 -11.578125 4.09375 -12.015625 C 4.675781 -12.453125 5.335938 -12.796875 6.078125 -13.046875 C 6.828125 -13.304688 7.671875 -13.4375 8.609375 -13.4375 C 9.535156 -13.4375 10.332031 -13.328125 11 -13.109375 C 11.664062 -12.898438 12.222656 -12.585938 12.671875 -12.171875 C 13.117188 -11.753906 13.453125 -11.242188 13.671875 -10.640625 C 13.890625 -10.035156 14 -9.34375 14 -8.5625 Z M 10.453125 -8.328125 C 10.453125 -8.710938 10.410156 -9.050781 10.328125 -9.34375 C 10.253906 -9.644531 10.128906 -9.894531 9.953125 -10.09375 C 9.773438 -10.300781 9.546875 -10.457031 9.265625 -10.5625 C 8.984375 -10.675781 8.644531 -10.734375 8.25 -10.734375 C 7.789062 -10.734375 7.378906 -10.644531 7.015625 -10.46875 C 6.648438 -10.289062 6.320312 -10.050781 6.03125 -9.75 C 5.75 -9.445312 5.503906 -9.097656 5.296875 -8.703125 C 5.085938 -8.304688 4.910156 -7.890625 4.765625 -7.453125 C 4.628906 -7.015625 4.53125 -6.566406 4.46875 -6.109375 C 4.40625 -5.660156 4.375 -5.234375 4.375 -4.828125 C 4.375 -4.441406 4.410156 -4.097656 4.484375 -3.796875 C 4.566406 -3.492188 4.695312 -3.238281 4.875 -3.03125 C 5.050781 -2.832031 5.273438 -2.675781 5.546875 -2.5625 C 5.828125 -2.457031 6.171875 -2.40625 6.578125 -2.40625 C 7.035156 -2.40625 7.445312 -2.492188 7.8125 -2.671875 C 8.175781 -2.847656 8.5 -3.085938 8.78125 -3.390625 C 9.070312 -3.703125 9.320312 -4.054688 9.53125 -4.453125 C 9.738281 -4.847656 9.910156 -5.265625 10.046875 -5.703125 C 10.179688 -6.148438 10.28125 -6.597656 10.34375 -7.046875 C 10.414062 -7.492188 10.453125 -7.921875 10.453125 -8.328125 Z M 10.453125 -8.328125 "/></g></g></g><g fill="#ffffff" fill-opacity="1"><g transform="translate(257.086615, 132.673391)"><g><path d="M 14 -8.796875 C 14 -8.203125 13.941406 -7.5625 13.828125 -6.875 C 13.722656 -6.195312 13.554688 -5.519531 13.328125 -4.84375 C 13.097656 -4.164062 12.804688 -3.515625 12.453125 -2.890625 C 12.097656 -2.265625 11.671875 -1.710938 11.171875 -1.234375 C 10.679688 -0.765625 10.113281 -0.390625 9.46875 -0.109375 C 8.820312 0.171875 8.097656 0.3125 7.296875 0.3125 C 6.929688 0.3125 6.585938 0.273438 6.265625 0.203125 C 5.953125 0.128906 5.660156 0.03125 5.390625 -0.09375 C 5.117188 -0.226562 4.875 -0.382812 4.65625 -0.5625 C 4.4375 -0.738281 4.25 -0.929688 4.09375 -1.140625 L 3.015625 4.375 C 2.992188 4.46875 2.945312 4.550781 2.875 4.625 C 2.8125 4.695312 2.707031 4.753906 2.5625 4.796875 C 2.425781 4.847656 2.242188 4.890625 2.015625 4.921875 C 1.785156 4.953125 1.5 4.96875 1.15625 4.96875 C 0.820312 4.96875 0.550781 4.953125 0.34375 4.921875 C 0.132812 4.890625 -0.03125 4.847656 -0.15625 4.796875 C -0.28125 4.753906 -0.359375 4.695312 -0.390625 4.625 C -0.429688 4.550781 -0.441406 4.46875 -0.421875 4.375 L 3 -12.671875 C 3.03125 -12.867188 3.164062 -13.003906 3.40625 -13.078125 C 3.65625 -13.160156 4.066406 -13.203125 4.640625 -13.203125 C 4.921875 -13.203125 5.148438 -13.191406 5.328125 -13.171875 C 5.503906 -13.148438 5.644531 -13.117188 5.75 -13.078125 C 5.851562 -13.035156 5.921875 -12.976562 5.953125 -12.90625 C 5.992188 -12.84375 6.003906 -12.765625 5.984375 -12.671875 L 5.609375 -10.6875 C 5.742188 -10.988281 5.957031 -11.300781 6.25 -11.625 C 6.550781 -11.945312 6.90625 -12.242188 7.3125 -12.515625 C 7.726562 -12.785156 8.1875 -13.003906 8.6875 -13.171875 C 9.1875 -13.347656 9.703125 -13.4375 10.234375 -13.4375 C 10.929688 -13.4375 11.519531 -13.316406 12 -13.078125 C 12.476562 -12.835938 12.863281 -12.503906 13.15625 -12.078125 C 13.457031 -11.660156 13.671875 -11.171875 13.796875 -10.609375 C 13.929688 -10.046875 14 -9.441406 14 -8.796875 Z M 10.453125 -8.484375 C 10.453125 -8.796875 10.425781 -9.078125 10.375 -9.328125 C 10.332031 -9.585938 10.253906 -9.804688 10.140625 -9.984375 C 10.023438 -10.160156 9.878906 -10.296875 9.703125 -10.390625 C 9.523438 -10.484375 9.304688 -10.53125 9.046875 -10.53125 C 8.640625 -10.53125 8.226562 -10.40625 7.8125 -10.15625 C 7.394531 -9.914062 7.003906 -9.585938 6.640625 -9.171875 C 6.273438 -8.765625 5.953125 -8.285156 5.671875 -7.734375 C 5.390625 -7.179688 5.191406 -6.59375 5.078125 -5.96875 L 4.6875 -4.109375 C 5.007812 -3.597656 5.363281 -3.21875 5.75 -2.96875 C 6.132812 -2.71875 6.582031 -2.59375 7.09375 -2.59375 C 7.46875 -2.59375 7.8125 -2.679688 8.125 -2.859375 C 8.4375 -3.046875 8.71875 -3.289062 8.96875 -3.59375 C 9.226562 -3.90625 9.445312 -4.257812 9.625 -4.65625 C 9.8125 -5.0625 9.96875 -5.484375 10.09375 -5.921875 C 10.21875 -6.359375 10.304688 -6.796875 10.359375 -7.234375 C 10.421875 -7.679688 10.453125 -8.097656 10.453125 -8.484375 Z M 10.453125 -8.484375 "/></g></g></g><g fill="#ffffff" fill-opacity="1"><g transform="translate(272.900175, 132.673391)"><g><path d="M 3.984375 -0.46875 C 3.960938 -0.375 3.914062 -0.289062 3.84375 -0.21875 C 3.78125 -0.15625 3.679688 -0.0976562 3.546875 -0.046875 C 3.410156 -0.00390625 3.226562 0.0234375 3 0.046875 C 2.769531 0.0664062 2.488281 0.078125 2.15625 0.078125 C 1.8125 0.078125 1.53125 0.0664062 1.3125 0.046875 C 1.101562 0.0234375 0.9375 -0.00390625 0.8125 -0.046875 C 0.695312 -0.0976562 0.617188 -0.15625 0.578125 -0.21875 C 0.535156 -0.289062 0.523438 -0.375 0.546875 -0.46875 L 4.140625 -18.4375 C 4.160156 -18.53125 4.203125 -18.613281 4.265625 -18.6875 C 4.328125 -18.757812 4.429688 -18.820312 4.578125 -18.875 C 4.722656 -18.925781 4.90625 -18.960938 5.125 -18.984375 C 5.351562 -19.015625 5.632812 -19.03125 5.96875 -19.03125 C 6.3125 -19.03125 6.585938 -19.015625 6.796875 -18.984375 C 7.015625 -18.960938 7.179688 -18.925781 7.296875 -18.875 C 7.421875 -18.820312 7.5 -18.757812 7.53125 -18.6875 C 7.570312 -18.613281 7.582031 -18.53125 7.5625 -18.4375 Z M 3.984375 -0.46875 "/></g></g></g><g fill="#ffffff" fill-opacity="1"><g transform="translate(280.812482, 132.673391)"><g><path d="M 13.25 -9.984375 C 13.25 -9.328125 13.097656 -8.734375 12.796875 -8.203125 C 12.503906 -7.679688 12.046875 -7.234375 11.421875 -6.859375 C 10.796875 -6.484375 10.003906 -6.191406 9.046875 -5.984375 C 8.085938 -5.785156 6.941406 -5.6875 5.609375 -5.6875 L 4.34375 -5.6875 C 4.3125 -5.476562 4.285156 -5.269531 4.265625 -5.0625 C 4.242188 -4.863281 4.234375 -4.675781 4.234375 -4.5 C 4.234375 -3.757812 4.425781 -3.203125 4.8125 -2.828125 C 5.195312 -2.453125 5.8125 -2.265625 6.65625 -2.265625 C 7.257812 -2.265625 7.800781 -2.304688 8.28125 -2.390625 C 8.757812 -2.484375 9.175781 -2.582031 9.53125 -2.6875 C 9.894531 -2.789062 10.191406 -2.882812 10.421875 -2.96875 C 10.660156 -3.0625 10.835938 -3.109375 10.953125 -3.109375 C 11.054688 -3.109375 11.128906 -3.070312 11.171875 -3 C 11.222656 -2.9375 11.25 -2.835938 11.25 -2.703125 C 11.25 -2.546875 11.234375 -2.367188 11.203125 -2.171875 C 11.179688 -1.972656 11.144531 -1.773438 11.09375 -1.578125 C 11.039062 -1.378906 10.972656 -1.191406 10.890625 -1.015625 C 10.816406 -0.847656 10.734375 -0.71875 10.640625 -0.625 C 10.523438 -0.519531 10.320312 -0.410156 10.03125 -0.296875 C 9.738281 -0.191406 9.390625 -0.09375 8.984375 0 C 8.578125 0.09375 8.117188 0.164062 7.609375 0.21875 C 7.097656 0.28125 6.578125 0.3125 6.046875 0.3125 C 5.171875 0.3125 4.40625 0.21875 3.75 0.03125 C 3.101562 -0.144531 2.5625 -0.421875 2.125 -0.796875 C 1.6875 -1.171875 1.359375 -1.644531 1.140625 -2.21875 C 0.921875 -2.800781 0.8125 -3.488281 0.8125 -4.28125 C 0.8125 -4.894531 0.867188 -5.546875 0.984375 -6.234375 C 1.097656 -6.929688 1.28125 -7.617188 1.53125 -8.296875 C 1.789062 -8.984375 2.117188 -9.632812 2.515625 -10.25 C 2.921875 -10.875 3.40625 -11.421875 3.96875 -11.890625 C 4.539062 -12.359375 5.195312 -12.734375 5.9375 -13.015625 C 6.6875 -13.296875 7.539062 -13.4375 8.5 -13.4375 C 9.332031 -13.4375 10.046875 -13.335938 10.640625 -13.140625 C 11.242188 -12.953125 11.734375 -12.691406 12.109375 -12.359375 C 12.492188 -12.035156 12.78125 -11.664062 12.96875 -11.25 C 13.15625 -10.84375 13.25 -10.421875 13.25 -9.984375 Z M 9.875 -9.71875 C 9.875 -10.082031 9.726562 -10.382812 9.4375 -10.625 C 9.15625 -10.875 8.738281 -11 8.1875 -11 C 7.726562 -11 7.316406 -10.914062 6.953125 -10.75 C 6.597656 -10.582031 6.285156 -10.359375 6.015625 -10.078125 C 5.742188 -9.804688 5.507812 -9.476562 5.3125 -9.09375 C 5.113281 -8.71875 4.957031 -8.316406 4.84375 -7.890625 L 5.984375 -7.890625 C 6.710938 -7.890625 7.320312 -7.9375 7.8125 -8.03125 C 8.3125 -8.125 8.710938 -8.253906 9.015625 -8.421875 C 9.316406 -8.585938 9.535156 -8.78125 9.671875 -9 C 9.804688 -9.226562 9.875 -9.46875 9.875 -9.71875 Z M 9.875 -9.71875 "/></g></g></g><g fill="#ffffff" fill-opacity="1"><g transform="translate(295.600788, 132.673391)"><g><path d="M 4.953125 -2.703125 C 4.953125 -2.566406 4.9375 -2.390625 4.90625 -2.171875 C 4.882812 -1.953125 4.84375 -1.726562 4.78125 -1.5 C 4.71875 -1.269531 4.640625 -1.046875 4.546875 -0.828125 C 4.453125 -0.609375 4.332031 -0.425781 4.1875 -0.28125 C 4.050781 -0.144531 3.84375 -0.0351562 3.5625 0.046875 C 3.28125 0.128906 2.914062 0.171875 2.46875 0.171875 C 2.125 0.171875 1.835938 0.144531 1.609375 0.09375 C 1.390625 0.0390625 1.210938 -0.0351562 1.078125 -0.140625 C 0.953125 -0.253906 0.859375 -0.394531 0.796875 -0.5625 C 0.742188 -0.738281 0.71875 -0.9375 0.71875 -1.15625 C 0.71875 -1.300781 0.734375 -1.484375 0.765625 -1.703125 C 0.804688 -1.921875 0.851562 -2.144531 0.90625 -2.375 C 0.96875 -2.613281 1.046875 -2.835938 1.140625 -3.046875 C 1.234375 -3.253906 1.351562 -3.425781 1.5 -3.5625 C 1.644531 -3.707031 1.847656 -3.820312 2.109375 -3.90625 C 2.378906 -4 2.753906 -4.046875 3.234375 -4.046875 C 3.585938 -4.046875 3.875 -4.015625 4.09375 -3.953125 C 4.320312 -3.890625 4.5 -3.800781 4.625 -3.6875 C 4.757812 -3.570312 4.847656 -3.429688 4.890625 -3.265625 C 4.929688 -3.097656 4.953125 -2.910156 4.953125 -2.703125 Z M 4.953125 -2.703125 "/></g></g></g><g fill="#ffffff" fill-opacity="1"><g transform="translate(304.114574, 132.673391)"><g/></g></g><g fill="#ffffff" fill-opacity="1"><g transform="translate(311.480083, 132.673391)"><g><path d="M 14.4375 -17.171875 C 14.4375 -17.117188 14.425781 -17.023438 14.40625 -16.890625 C 14.394531 -16.753906 14.375 -16.597656 14.34375 -16.421875 C 14.320312 -16.253906 14.285156 -16.078125 14.234375 -15.890625 C 14.191406 -15.710938 14.132812 -15.546875 14.0625 -15.390625 C 14 -15.242188 13.921875 -15.117188 13.828125 -15.015625 C 13.734375 -14.921875 13.628906 -14.875 13.515625 -14.875 L 7.203125 -14.875 L 6.328125 -10.5625 L 11.6875 -10.5625 C 11.8125 -10.5625 11.898438 -10.515625 11.953125 -10.421875 C 12.015625 -10.328125 12.046875 -10.195312 12.046875 -10.03125 C 12.046875 -9.96875 12.035156 -9.867188 12.015625 -9.734375 C 12.003906 -9.609375 11.984375 -9.457031 11.953125 -9.28125 C 11.929688 -9.113281 11.894531 -8.941406 11.84375 -8.765625 C 11.800781 -8.597656 11.742188 -8.441406 11.671875 -8.296875 C 11.609375 -8.148438 11.53125 -8.03125 11.4375 -7.9375 C 11.351562 -7.851562 11.253906 -7.8125 11.140625 -7.8125 L 5.796875 -7.8125 L 4.78125 -2.8125 L 11.1875 -2.8125 C 11.289062 -2.8125 11.367188 -2.765625 11.421875 -2.671875 C 11.484375 -2.578125 11.515625 -2.4375 11.515625 -2.25 C 11.515625 -2.1875 11.507812 -2.085938 11.5 -1.953125 C 11.488281 -1.816406 11.46875 -1.664062 11.4375 -1.5 C 11.40625 -1.332031 11.363281 -1.160156 11.3125 -0.984375 C 11.269531 -0.804688 11.210938 -0.644531 11.140625 -0.5 C 11.078125 -0.351562 11 -0.234375 10.90625 -0.140625 C 10.820312 -0.046875 10.71875 0 10.59375 0 L 1.703125 0 C 1.554688 0 1.425781 -0.0195312 1.3125 -0.0625 C 1.195312 -0.101562 1.097656 -0.171875 1.015625 -0.265625 C 0.941406 -0.359375 0.890625 -0.472656 0.859375 -0.609375 C 0.835938 -0.753906 0.84375 -0.929688 0.875 -1.140625 L 3.96875 -16.5625 C 4.050781 -16.957031 4.210938 -17.242188 4.453125 -17.421875 C 4.703125 -17.597656 4.976562 -17.6875 5.28125 -17.6875 L 14.078125 -17.6875 C 14.316406 -17.6875 14.4375 -17.515625 14.4375 -17.171875 Z M 14.4375 -17.171875 "/></g></g></g><g fill="#ffffff" fill-opacity="1"><g transform="translate(326.172694, 132.673391)"><g><path d="M 3.984375 -0.46875 C 3.960938 -0.375 3.914062 -0.289062 3.84375 -0.21875 C 3.78125 -0.15625 3.679688 -0.0976562 3.546875 -0.046875 C 3.410156 -0.00390625 3.226562 0.0234375 3 0.046875 C 2.769531 0.0664062 2.488281 0.078125 2.15625 0.078125 C 1.8125 0.078125 1.53125 0.0664062 1.3125 0.046875 C 1.101562 0.0234375 0.9375 -0.00390625 0.8125 -0.046875 C 0.695312 -0.0976562 0.617188 -0.15625 0.578125 -0.21875 C 0.535156 -0.289062 0.523438 -0.375 0.546875 -0.46875 L 4.140625 -18.4375 C 4.160156 -18.53125 4.203125 -18.613281 4.265625 -18.6875 C 4.328125 -18.757812 4.429688 -18.820312 4.578125 -18.875 C 4.722656 -18.925781 4.90625 -18.960938 5.125 -18.984375 C 5.351562 -19.015625 5.632812 -19.03125 5.96875 -19.03125 C 6.3125 -19.03125 6.585938 -19.015625 6.796875 -18.984375 C 7.015625 -18.960938 7.179688 -18.925781 7.296875 -18.875 C 7.421875 -18.820312 7.5 -18.757812 7.53125 -18.6875 C 7.570312 -18.613281 7.582031 -18.53125 7.5625 -18.4375 Z M 3.984375 -0.46875 "/></g></g></g><g fill="#ffffff" fill-opacity="1"><g transform="translate(334.085001, 132.673391)"><g><path d="M 13.25 -9.984375 C 13.25 -9.328125 13.097656 -8.734375 12.796875 -8.203125 C 12.503906 -7.679688 12.046875 -7.234375 11.421875 -6.859375 C 10.796875 -6.484375 10.003906 -6.191406 9.046875 -5.984375 C 8.085938 -5.785156 6.941406 -5.6875 5.609375 -5.6875 L 4.34375 -5.6875 C 4.3125 -5.476562 4.285156 -5.269531 4.265625 -5.0625 C 4.242188 -4.863281 4.234375 -4.675781 4.234375 -4.5 C 4.234375 -3.757812 4.425781 -3.203125 4.8125 -2.828125 C 5.195312 -2.453125 5.8125 -2.265625 6.65625 -2.265625 C 7.257812 -2.265625 7.800781 -2.304688 8.28125 -2.390625 C 8.757812 -2.484375 9.175781 -2.582031 9.53125 -2.6875 C 9.894531 -2.789062 10.191406 -2.882812 10.421875 -2.96875 C 10.660156 -3.0625 10.835938 -3.109375 10.953125 -3.109375 C 11.054688 -3.109375 11.128906 -3.070312 11.171875 -3 C 11.222656 -2.9375 11.25 -2.835938 11.25 -2.703125 C 11.25 -2.546875 11.234375 -2.367188 11.203125 -2.171875 C 11.179688 -1.972656 11.144531 -1.773438 11.09375 -1.578125 C 11.039062 -1.378906 10.972656 -1.191406 10.890625 -1.015625 C 10.816406 -0.847656 10.734375 -0.71875 10.640625 -0.625 C 10.523438 -0.519531 10.320312 -0.410156 10.03125 -0.296875 C 9.738281 -0.191406 9.390625 -0.09375 8.984375 0 C 8.578125 0.09375 8.117188 0.164062 7.609375 0.21875 C 7.097656 0.28125 6.578125 0.3125 6.046875 0.3125 C 5.171875 0.3125 4.40625 0.21875 3.75 0.03125 C 3.101562 -0.144531 2.5625 -0.421875 2.125 -0.796875 C 1.6875 -1.171875 1.359375 -1.644531 1.140625 -2.21875 C 0.921875 -2.800781 0.8125 -3.488281 0.8125 -4.28125 C 0.8125 -4.894531 0.867188 -5.546875 0.984375 -6.234375 C 1.097656 -6.929688 1.28125 -7.617188 1.53125 -8.296875 C 1.789062 -8.984375 2.117188 -9.632812 2.515625 -10.25 C 2.921875 -10.875 3.40625 -11.421875 3.96875 -11.890625 C 4.539062 -12.359375 5.195312 -12.734375 5.9375 -13.015625 C 6.6875 -13.296875 7.539062 -13.4375 8.5 -13.4375 C 9.332031 -13.4375 10.046875 -13.335938 10.640625 -13.140625 C 11.242188 -12.953125 11.734375 -12.691406 12.109375 -12.359375 C 12.492188 -12.035156 12.78125 -11.664062 12.96875 -11.25 C 13.15625 -10.84375 13.25 -10.421875 13.25 -9.984375 Z M 9.875 -9.71875 C 9.875 -10.082031 9.726562 -10.382812 9.4375 -10.625 C 9.15625 -10.875 8.738281 -11 8.1875 -11 C 7.726562 -11 7.316406 -10.914062 6.953125 -10.75 C 6.597656 -10.582031 6.285156 -10.359375 6.015625 -10.078125 C 5.742188 -9.804688 5.507812 -9.476562 5.3125 -9.09375 C 5.113281 -8.71875 4.957031 -8.316406 4.84375 -7.890625 L 5.984375 -7.890625 C 6.710938 -7.890625 7.320312 -7.9375 7.8125 -8.03125 C 8.3125 -8.125 8.710938 -8.253906 9.015625 -8.421875 C 9.316406 -8.585938 9.535156 -8.78125 9.671875 -9 C 9.804688 -9.226562 9.875 -9.46875 9.875 -9.71875 Z M 9.875 -9.71875 "/></g></g></g><g fill="#ffffff" fill-opacity="1"><g transform="translate(348.873307, 132.673391)"><g><path d="M 13.625 -12.75 C 13.625 -12.65625 13.609375 -12.535156 13.578125 -12.390625 C 13.554688 -12.242188 13.519531 -12.085938 13.46875 -11.921875 C 13.132812 -10.941406 12.757812 -9.957031 12.34375 -8.96875 C 11.9375 -7.976562 11.484375 -7 10.984375 -6.03125 C 10.492188 -5.0625 9.960938 -4.113281 9.390625 -3.1875 C 8.828125 -2.257812 8.210938 -1.363281 7.546875 -0.5 C 7.453125 -0.363281 7.34375 -0.253906 7.21875 -0.171875 C 7.09375 -0.0976562 6.9375 -0.0390625 6.75 0 C 6.570312 0.0390625 6.359375 0.0625 6.109375 0.0625 C 5.867188 0.0703125 5.582031 0.078125 5.25 0.078125 C 4.75 0.078125 4.351562 0.0664062 4.0625 0.046875 C 3.769531 0.0234375 3.546875 -0.0078125 3.390625 -0.0625 C 3.234375 -0.125 3.128906 -0.203125 3.078125 -0.296875 C 3.023438 -0.390625 2.992188 -0.507812 2.984375 -0.65625 L 1.546875 -11.625 C 1.535156 -11.769531 1.523438 -11.90625 1.515625 -12.03125 C 1.503906 -12.15625 1.5 -12.273438 1.5 -12.390625 C 1.5 -12.566406 1.519531 -12.703125 1.5625 -12.796875 C 1.601562 -12.898438 1.6875 -12.976562 1.8125 -13.03125 C 1.9375 -13.09375 2.113281 -13.132812 2.34375 -13.15625 C 2.570312 -13.1875 2.882812 -13.203125 3.28125 -13.203125 C 3.644531 -13.203125 3.929688 -13.191406 4.140625 -13.171875 C 4.347656 -13.160156 4.507812 -13.128906 4.625 -13.078125 C 4.738281 -13.035156 4.8125 -12.972656 4.84375 -12.890625 C 4.882812 -12.816406 4.910156 -12.726562 4.921875 -12.625 L 5.96875 -3.671875 L 5.96875 -3.328125 L 6.03125 -3.453125 C 6.5 -4.148438 6.921875 -4.851562 7.296875 -5.5625 C 7.671875 -6.269531 8.019531 -7 8.34375 -7.75 C 8.664062 -8.5 8.96875 -9.273438 9.25 -10.078125 C 9.539062 -10.878906 9.820312 -11.726562 10.09375 -12.625 C 10.113281 -12.738281 10.160156 -12.832031 10.234375 -12.90625 C 10.304688 -12.976562 10.414062 -13.035156 10.5625 -13.078125 C 10.71875 -13.128906 10.910156 -13.160156 11.140625 -13.171875 C 11.378906 -13.191406 11.671875 -13.203125 12.015625 -13.203125 C 12.359375 -13.203125 12.632812 -13.191406 12.84375 -13.171875 C 13.0625 -13.160156 13.226562 -13.132812 13.34375 -13.09375 C 13.457031 -13.0625 13.53125 -13.015625 13.5625 -12.953125 C 13.601562 -12.898438 13.625 -12.832031 13.625 -12.75 Z M 13.625 -12.75 "/></g></g></g><g fill="#ffffff" fill-opacity="1"><g transform="translate(363.04647, 132.673391)"><g><path d="M 11.875 -0.453125 C 11.832031 -0.265625 11.6875 -0.128906 11.4375 -0.046875 C 11.1875 0.0351562 10.785156 0.078125 10.234375 0.078125 C 9.941406 0.078125 9.707031 0.0664062 9.53125 0.046875 C 9.351562 0.0351562 9.207031 0.0078125 9.09375 -0.03125 C 8.988281 -0.0703125 8.921875 -0.125 8.890625 -0.1875 C 8.859375 -0.257812 8.851562 -0.347656 8.875 -0.453125 L 9.25 -2.40625 C 9.113281 -2.113281 8.894531 -1.804688 8.59375 -1.484375 C 8.300781 -1.160156 7.945312 -0.863281 7.53125 -0.59375 C 7.125 -0.332031 6.671875 -0.117188 6.171875 0.046875 C 5.671875 0.222656 5.160156 0.3125 4.640625 0.3125 C 3.910156 0.3125 3.300781 0.1875 2.8125 -0.0625 C 2.332031 -0.320312 1.945312 -0.664062 1.65625 -1.09375 C 1.363281 -1.53125 1.15625 -2.023438 1.03125 -2.578125 C 0.90625 -3.140625 0.84375 -3.722656 0.84375 -4.328125 C 0.84375 -4.910156 0.894531 -5.539062 1 -6.21875 C 1.113281 -6.894531 1.285156 -7.566406 1.515625 -8.234375 C 1.742188 -8.910156 2.035156 -9.5625 2.390625 -10.1875 C 2.742188 -10.8125 3.171875 -11.363281 3.671875 -11.84375 C 4.171875 -12.332031 4.738281 -12.71875 5.375 -13 C 6.019531 -13.289062 6.75 -13.4375 7.5625 -13.4375 C 8.320312 -13.4375 8.992188 -13.28125 9.578125 -12.96875 C 10.160156 -12.65625 10.671875 -12.195312 11.109375 -11.59375 L 11.328125 -12.671875 C 11.359375 -12.867188 11.5 -13.003906 11.75 -13.078125 C 12 -13.160156 12.40625 -13.203125 12.96875 -13.203125 C 13.238281 -13.203125 13.460938 -13.191406 13.640625 -13.171875 C 13.828125 -13.148438 13.972656 -13.117188 14.078125 -13.078125 C 14.179688 -13.035156 14.25 -12.976562 14.28125 -12.90625 C 14.320312 -12.84375 14.332031 -12.765625 14.3125 -12.671875 Z M 10.171875 -9.015625 C 9.847656 -9.515625 9.492188 -9.890625 9.109375 -10.140625 C 8.722656 -10.390625 8.273438 -10.515625 7.765625 -10.515625 C 7.378906 -10.515625 7.023438 -10.421875 6.703125 -10.234375 C 6.390625 -10.054688 6.109375 -9.8125 5.859375 -9.5 C 5.617188 -9.195312 5.40625 -8.84375 5.21875 -8.4375 C 5.03125 -8.039062 4.875 -7.625 4.75 -7.1875 C 4.625 -6.757812 4.53125 -6.320312 4.46875 -5.875 C 4.414062 -5.4375 4.390625 -5.03125 4.390625 -4.65625 C 4.390625 -4.382812 4.410156 -4.125 4.453125 -3.875 C 4.492188 -3.632812 4.566406 -3.414062 4.671875 -3.21875 C 4.785156 -3.03125 4.929688 -2.878906 5.109375 -2.765625 C 5.296875 -2.648438 5.53125 -2.59375 5.8125 -2.59375 C 6.207031 -2.59375 6.613281 -2.710938 7.03125 -2.953125 C 7.457031 -3.203125 7.851562 -3.53125 8.21875 -3.9375 C 8.582031 -4.351562 8.898438 -4.835938 9.171875 -5.390625 C 9.453125 -5.941406 9.660156 -6.535156 9.796875 -7.171875 Z M 10.171875 -9.015625 "/></g></g></g><g fill="#ffffff" fill-opacity="1"><g transform="translate(378.86003, 132.673391)"><g><path d="M 10.125 -12.53125 C 10.125 -12.445312 10.113281 -12.332031 10.09375 -12.1875 C 10.082031 -12.050781 10.0625 -11.898438 10.03125 -11.734375 C 10 -11.566406 9.953125 -11.398438 9.890625 -11.234375 C 9.835938 -11.078125 9.773438 -10.929688 9.703125 -10.796875 C 9.640625 -10.660156 9.566406 -10.550781 9.484375 -10.46875 C 9.398438 -10.382812 9.304688 -10.34375 9.203125 -10.34375 L 6.53125 -10.34375 L 5.390625 -4.609375 C 5.359375 -4.472656 5.332031 -4.3125 5.3125 -4.125 C 5.289062 -3.9375 5.28125 -3.785156 5.28125 -3.671875 C 5.28125 -3.304688 5.363281 -3.035156 5.53125 -2.859375 C 5.707031 -2.691406 5.984375 -2.609375 6.359375 -2.609375 C 6.578125 -2.609375 6.765625 -2.625 6.921875 -2.65625 C 7.078125 -2.6875 7.210938 -2.722656 7.328125 -2.765625 C 7.441406 -2.804688 7.535156 -2.84375 7.609375 -2.875 C 7.691406 -2.90625 7.769531 -2.921875 7.84375 -2.921875 C 7.914062 -2.921875 7.976562 -2.882812 8.03125 -2.8125 C 8.082031 -2.75 8.109375 -2.640625 8.109375 -2.484375 C 8.109375 -2.316406 8.085938 -2.125 8.046875 -1.90625 C 8.015625 -1.6875 7.96875 -1.472656 7.90625 -1.265625 C 7.851562 -1.054688 7.789062 -0.867188 7.71875 -0.703125 C 7.644531 -0.535156 7.566406 -0.410156 7.484375 -0.328125 C 7.398438 -0.242188 7.273438 -0.164062 7.109375 -0.09375 C 6.941406 -0.0195312 6.742188 0.0390625 6.515625 0.09375 C 6.296875 0.144531 6.054688 0.1875 5.796875 0.21875 C 5.546875 0.257812 5.296875 0.28125 5.046875 0.28125 C 4.492188 0.28125 4.007812 0.222656 3.59375 0.109375 C 3.1875 -0.00390625 2.84375 -0.1875 2.5625 -0.4375 C 2.28125 -0.6875 2.066406 -1 1.921875 -1.375 C 1.773438 -1.757812 1.703125 -2.226562 1.703125 -2.78125 C 1.703125 -2.875 1.707031 -2.988281 1.71875 -3.125 C 1.726562 -3.257812 1.742188 -3.398438 1.765625 -3.546875 C 1.796875 -3.691406 1.820312 -3.835938 1.84375 -3.984375 C 1.863281 -4.140625 1.890625 -4.273438 1.921875 -4.390625 L 3.109375 -10.34375 L 1.625 -10.34375 C 1.507812 -10.34375 1.421875 -10.378906 1.359375 -10.453125 C 1.304688 -10.523438 1.28125 -10.671875 1.28125 -10.890625 C 1.28125 -11.046875 1.296875 -11.25 1.328125 -11.5 C 1.359375 -11.75 1.410156 -11.992188 1.484375 -12.234375 C 1.554688 -12.484375 1.648438 -12.691406 1.765625 -12.859375 C 1.890625 -13.035156 2.035156 -13.125 2.203125 -13.125 L 3.671875 -13.125 L 4.21875 -15.84375 C 4.226562 -15.9375 4.265625 -16.019531 4.328125 -16.09375 C 4.398438 -16.164062 4.507812 -16.226562 4.65625 -16.28125 C 4.800781 -16.332031 4.984375 -16.367188 5.203125 -16.390625 C 5.421875 -16.410156 5.703125 -16.421875 6.046875 -16.421875 C 6.367188 -16.421875 6.640625 -16.410156 6.859375 -16.390625 C 7.078125 -16.367188 7.242188 -16.332031 7.359375 -16.28125 C 7.484375 -16.226562 7.566406 -16.164062 7.609375 -16.09375 C 7.648438 -16.019531 7.660156 -15.9375 7.640625 -15.84375 L 7.09375 -13.125 L 9.734375 -13.125 C 9.890625 -13.125 9.992188 -13.070312 10.046875 -12.96875 C 10.097656 -12.875 10.125 -12.726562 10.125 -12.53125 Z M 10.125 -12.53125 "/></g></g></g><g fill="#ffffff" fill-opacity="1"><g transform="translate(389.602026, 132.673391)"><g><path d="M 7.5 -16.765625 C 7.4375 -16.421875 7.347656 -16.132812 7.234375 -15.90625 C 7.128906 -15.675781 6.984375 -15.488281 6.796875 -15.34375 C 6.617188 -15.207031 6.398438 -15.109375 6.140625 -15.046875 C 5.878906 -14.984375 5.550781 -14.953125 5.15625 -14.953125 C 4.769531 -14.953125 4.457031 -14.984375 4.21875 -15.046875 C 3.976562 -15.109375 3.796875 -15.207031 3.671875 -15.34375 C 3.546875 -15.488281 3.472656 -15.675781 3.453125 -15.90625 C 3.441406 -16.132812 3.472656 -16.421875 3.546875 -16.765625 C 3.609375 -17.085938 3.691406 -17.363281 3.796875 -17.59375 C 3.910156 -17.820312 4.054688 -18.007812 4.234375 -18.15625 C 4.421875 -18.300781 4.644531 -18.40625 4.90625 -18.46875 C 5.175781 -18.53125 5.503906 -18.5625 5.890625 -18.5625 C 6.273438 -18.5625 6.585938 -18.53125 6.828125 -18.46875 C 7.066406 -18.40625 7.25 -18.300781 7.375 -18.15625 C 7.5 -18.007812 7.566406 -17.820312 7.578125 -17.59375 C 7.597656 -17.363281 7.570312 -17.085938 7.5 -16.765625 Z M 3.984375 -0.46875 C 3.960938 -0.375 3.914062 -0.289062 3.84375 -0.21875 C 3.78125 -0.15625 3.675781 -0.0976562 3.53125 -0.046875 C 3.394531 -0.00390625 3.210938 0.0234375 2.984375 0.046875 C 2.753906 0.0664062 2.472656 0.078125 2.140625 0.078125 C 1.804688 0.078125 1.53125 0.0664062 1.3125 0.046875 C 1.101562 0.0234375 0.9375 -0.00390625 0.8125 -0.046875 C 0.6875 -0.0976562 0.601562 -0.15625 0.5625 -0.21875 C 0.53125 -0.289062 0.523438 -0.375 0.546875 -0.46875 L 2.96875 -12.640625 C 2.988281 -12.722656 3.03125 -12.796875 3.09375 -12.859375 C 3.164062 -12.929688 3.269531 -12.992188 3.40625 -13.046875 C 3.550781 -13.097656 3.734375 -13.132812 3.953125 -13.15625 C 4.179688 -13.1875 4.460938 -13.203125 4.796875 -13.203125 C 5.140625 -13.203125 5.414062 -13.1875 5.625 -13.15625 C 5.84375 -13.132812 6.007812 -13.097656 6.125 -13.046875 C 6.25 -12.992188 6.328125 -12.929688 6.359375 -12.859375 C 6.398438 -12.796875 6.414062 -12.722656 6.40625 -12.640625 Z M 3.984375 -0.46875 "/></g></g></g><g fill="#ffffff" fill-opacity="1"><g transform="translate(397.514333, 132.673391)"><g><path d="M 13.65625 -9.9375 C 13.65625 -9.625 13.632812 -9.304688 13.59375 -8.984375 C 13.550781 -8.660156 13.5 -8.332031 13.4375 -8 L 11.921875 -0.46875 C 11.898438 -0.375 11.851562 -0.289062 11.78125 -0.21875 C 11.71875 -0.15625 11.613281 -0.0976562 11.46875 -0.046875 C 11.332031 -0.00390625 11.148438 0.0234375 10.921875 0.046875 C 10.703125 0.0664062 10.425781 0.078125 10.09375 0.078125 C 9.75 0.078125 9.46875 0.0664062 9.25 0.046875 C 9.039062 0.0234375 8.878906 -0.00390625 8.765625 -0.046875 C 8.648438 -0.0976562 8.570312 -0.15625 8.53125 -0.21875 C 8.488281 -0.289062 8.472656 -0.375 8.484375 -0.46875 L 9.96875 -7.78125 C 10.007812 -8 10.039062 -8.222656 10.0625 -8.453125 C 10.09375 -8.679688 10.109375 -8.878906 10.109375 -9.046875 C 10.109375 -9.460938 10.019531 -9.800781 9.84375 -10.0625 C 9.664062 -10.320312 9.375 -10.453125 8.96875 -10.453125 C 8.59375 -10.453125 8.203125 -10.332031 7.796875 -10.09375 C 7.390625 -9.863281 7.003906 -9.546875 6.640625 -9.140625 C 6.285156 -8.734375 5.96875 -8.257812 5.6875 -7.71875 C 5.40625 -7.175781 5.207031 -6.597656 5.09375 -5.984375 L 3.984375 -0.46875 C 3.960938 -0.375 3.914062 -0.289062 3.84375 -0.21875 C 3.78125 -0.15625 3.675781 -0.0976562 3.53125 -0.046875 C 3.394531 -0.00390625 3.210938 0.0234375 2.984375 0.046875 C 2.753906 0.0664062 2.472656 0.078125 2.140625 0.078125 C 1.804688 0.078125 1.53125 0.0664062 1.3125 0.046875 C 1.101562 0.0234375 0.9375 -0.00390625 0.8125 -0.046875 C 0.6875 -0.0976562 0.601562 -0.15625 0.5625 -0.21875 C 0.53125 -0.289062 0.523438 -0.375 0.546875 -0.46875 L 3 -12.671875 C 3.007812 -12.765625 3.046875 -12.84375 3.109375 -12.90625 C 3.171875 -12.976562 3.257812 -13.035156 3.375 -13.078125 C 3.5 -13.117188 3.660156 -13.148438 3.859375 -13.171875 C 4.054688 -13.191406 4.289062 -13.203125 4.5625 -13.203125 C 4.84375 -13.203125 5.070312 -13.191406 5.25 -13.171875 C 5.4375 -13.148438 5.578125 -13.117188 5.671875 -13.078125 C 5.773438 -13.035156 5.84375 -12.976562 5.875 -12.90625 C 5.90625 -12.84375 5.910156 -12.765625 5.890625 -12.671875 L 5.5 -10.671875 C 5.6875 -10.984375 5.9375 -11.304688 6.25 -11.640625 C 6.570312 -11.972656 6.941406 -12.269531 7.359375 -12.53125 C 7.773438 -12.800781 8.226562 -13.019531 8.71875 -13.1875 C 9.207031 -13.351562 9.710938 -13.4375 10.234375 -13.4375 C 10.878906 -13.4375 11.414062 -13.34375 11.84375 -13.15625 C 12.28125 -12.96875 12.628906 -12.710938 12.890625 -12.390625 C 13.160156 -12.078125 13.351562 -11.707031 13.46875 -11.28125 C 13.59375 -10.863281 13.65625 -10.414062 13.65625 -9.9375 Z M 13.65625 -9.9375 "/></g></g></g><g fill="#ffffff" fill-opacity="1"><g transform="translate(413.314206, 132.673391)"><g><path d="M 11.765625 0.03125 C 11.597656 0.851562 11.335938 1.570312 10.984375 2.1875 C 10.640625 2.8125 10.1875 3.328125 9.625 3.734375 C 9.0625 4.148438 8.375 4.460938 7.5625 4.671875 C 6.757812 4.878906 5.820312 4.984375 4.75 4.984375 C 3.96875 4.984375 3.269531 4.921875 2.65625 4.796875 C 2.039062 4.679688 1.53125 4.523438 1.125 4.328125 C 0.976562 4.253906 0.875 4.171875 0.8125 4.078125 C 0.757812 3.992188 0.734375 3.867188 0.734375 3.703125 C 0.734375 3.648438 0.738281 3.554688 0.75 3.421875 C 0.757812 3.296875 0.78125 3.15625 0.8125 3 C 0.84375 2.851562 0.878906 2.691406 0.921875 2.515625 C 0.972656 2.347656 1.03125 2.195312 1.09375 2.0625 C 1.164062 1.9375 1.242188 1.828125 1.328125 1.734375 C 1.410156 1.648438 1.503906 1.609375 1.609375 1.609375 C 1.722656 1.609375 1.859375 1.644531 2.015625 1.71875 C 2.171875 1.800781 2.378906 1.890625 2.640625 1.984375 C 2.910156 2.078125 3.238281 2.160156 3.625 2.234375 C 4.019531 2.316406 4.507812 2.359375 5.09375 2.359375 C 5.550781 2.359375 5.960938 2.320312 6.328125 2.25 C 6.703125 2.175781 7.023438 2.054688 7.296875 1.890625 C 7.578125 1.722656 7.800781 1.507812 7.96875 1.25 C 8.132812 1 8.253906 0.6875 8.328125 0.3125 C 8.441406 -0.28125 8.554688 -0.773438 8.671875 -1.171875 C 8.796875 -1.578125 8.910156 -1.90625 9.015625 -2.15625 C 8.847656 -1.851562 8.609375 -1.554688 8.296875 -1.265625 C 7.992188 -0.972656 7.644531 -0.707031 7.25 -0.46875 C 6.863281 -0.226562 6.441406 -0.0390625 5.984375 0.09375 C 5.535156 0.238281 5.085938 0.3125 4.640625 0.3125 C 3.929688 0.3125 3.335938 0.195312 2.859375 -0.03125 C 2.378906 -0.269531 1.988281 -0.597656 1.6875 -1.015625 C 1.394531 -1.441406 1.179688 -1.9375 1.046875 -2.5 C 0.910156 -3.0625 0.84375 -3.671875 0.84375 -4.328125 C 0.84375 -4.921875 0.894531 -5.5625 1 -6.25 C 1.113281 -6.9375 1.285156 -7.613281 1.515625 -8.28125 C 1.753906 -8.957031 2.050781 -9.601562 2.40625 -10.21875 C 2.757812 -10.84375 3.1875 -11.394531 3.6875 -11.875 C 4.1875 -12.351562 4.753906 -12.734375 5.390625 -13.015625 C 6.035156 -13.296875 6.757812 -13.4375 7.5625 -13.4375 C 8.320312 -13.4375 8.992188 -13.28125 9.578125 -12.96875 C 10.160156 -12.65625 10.671875 -12.195312 11.109375 -11.59375 L 11.328125 -12.671875 C 11.359375 -12.867188 11.5 -13.003906 11.75 -13.078125 C 12 -13.160156 12.40625 -13.203125 12.96875 -13.203125 C 13.238281 -13.203125 13.460938 -13.191406 13.640625 -13.171875 C 13.828125 -13.148438 13.972656 -13.117188 14.078125 -13.078125 C 14.179688 -13.035156 14.25 -12.976562 14.28125 -12.90625 C 14.320312 -12.84375 14.332031 -12.765625 14.3125 -12.671875 Z M 10.171875 -9.03125 C 9.847656 -9.53125 9.492188 -9.90625 9.109375 -10.15625 C 8.722656 -10.40625 8.273438 -10.53125 7.765625 -10.53125 C 7.378906 -10.53125 7.03125 -10.4375 6.71875 -10.25 C 6.40625 -10.070312 6.125 -9.828125 5.875 -9.515625 C 5.625 -9.210938 5.40625 -8.859375 5.21875 -8.453125 C 5.03125 -8.054688 4.875 -7.640625 4.75 -7.203125 C 4.625 -6.765625 4.53125 -6.328125 4.46875 -5.890625 C 4.414062 -5.453125 4.390625 -5.039062 4.390625 -4.65625 C 4.390625 -4.34375 4.414062 -4.054688 4.46875 -3.796875 C 4.519531 -3.546875 4.601562 -3.332031 4.71875 -3.15625 C 4.832031 -2.976562 4.976562 -2.835938 5.15625 -2.734375 C 5.332031 -2.640625 5.550781 -2.59375 5.8125 -2.59375 C 6.207031 -2.59375 6.613281 -2.710938 7.03125 -2.953125 C 7.457031 -3.203125 7.851562 -3.53125 8.21875 -3.9375 C 8.582031 -4.351562 8.898438 -4.835938 9.171875 -5.390625 C 9.453125 -5.953125 9.660156 -6.546875 9.796875 -7.171875 Z M 10.171875 -9.03125 "/></g></g></g><g fill="#ffffff" fill-opacity="1"><g transform="translate(429.127765, 132.673391)"><g/></g></g><g fill="#ffffff" fill-opacity="1"><g transform="translate(436.493274, 132.673391)"><g><path d="M 10.671875 -12.859375 C 10.671875 -12.785156 10.660156 -12.664062 10.640625 -12.5 C 10.617188 -12.34375 10.585938 -12.15625 10.546875 -11.9375 C 10.515625 -11.71875 10.472656 -11.488281 10.421875 -11.25 C 10.367188 -11.019531 10.304688 -10.804688 10.234375 -10.609375 C 10.160156 -10.410156 10.082031 -10.242188 10 -10.109375 C 9.914062 -9.984375 9.820312 -9.921875 9.71875 -9.921875 C 9.632812 -9.921875 9.550781 -9.9375 9.46875 -9.96875 C 9.394531 -10 9.304688 -10.03125 9.203125 -10.0625 C 9.097656 -10.101562 8.988281 -10.140625 8.875 -10.171875 C 8.757812 -10.203125 8.625 -10.21875 8.46875 -10.21875 C 8.15625 -10.21875 7.820312 -10.097656 7.46875 -9.859375 C 7.125 -9.617188 6.789062 -9.304688 6.46875 -8.921875 C 6.144531 -8.535156 5.859375 -8.082031 5.609375 -7.5625 C 5.359375 -7.050781 5.179688 -6.515625 5.078125 -5.953125 L 3.984375 -0.46875 C 3.960938 -0.375 3.914062 -0.289062 3.84375 -0.21875 C 3.78125 -0.15625 3.675781 -0.0976562 3.53125 -0.046875 C 3.394531 -0.00390625 3.210938 0.0234375 2.984375 0.046875 C 2.753906 0.0664062 2.472656 0.078125 2.140625 0.078125 C 1.804688 0.078125 1.53125 0.0664062 1.3125 0.046875 C 1.101562 0.0234375 0.9375 -0.00390625 0.8125 -0.046875 C 0.6875 -0.0976562 0.601562 -0.15625 0.5625 -0.21875 C 0.53125 -0.289062 0.523438 -0.375 0.546875 -0.46875 L 2.984375 -12.671875 C 3.003906 -12.765625 3.046875 -12.84375 3.109375 -12.90625 C 3.171875 -12.976562 3.257812 -13.035156 3.375 -13.078125 C 3.5 -13.117188 3.660156 -13.148438 3.859375 -13.171875 C 4.054688 -13.191406 4.289062 -13.203125 4.5625 -13.203125 C 4.84375 -13.203125 5.070312 -13.191406 5.25 -13.171875 C 5.4375 -13.148438 5.578125 -13.117188 5.671875 -13.078125 C 5.773438 -13.035156 5.84375 -12.976562 5.875 -12.90625 C 5.90625 -12.84375 5.910156 -12.765625 5.890625 -12.671875 L 5.515625 -10.734375 C 5.734375 -11.128906 5.984375 -11.488281 6.265625 -11.8125 C 6.554688 -12.144531 6.863281 -12.429688 7.1875 -12.671875 C 7.507812 -12.910156 7.84375 -13.097656 8.1875 -13.234375 C 8.53125 -13.367188 8.875 -13.4375 9.21875 -13.4375 C 9.351562 -13.4375 9.488281 -13.425781 9.625 -13.40625 C 9.769531 -13.394531 9.90625 -13.375 10.03125 -13.34375 C 10.15625 -13.3125 10.265625 -13.273438 10.359375 -13.234375 C 10.453125 -13.203125 10.523438 -13.160156 10.578125 -13.109375 C 10.640625 -13.054688 10.671875 -12.972656 10.671875 -12.859375 Z M 10.671875 -12.859375 "/></g></g></g><g fill="#ffffff" fill-opacity="1"><g transform="translate(447.385645, 132.673391)"><g><path d="M 13.25 -9.984375 C 13.25 -9.328125 13.097656 -8.734375 12.796875 -8.203125 C 12.503906 -7.679688 12.046875 -7.234375 11.421875 -6.859375 C 10.796875 -6.484375 10.003906 -6.191406 9.046875 -5.984375 C 8.085938 -5.785156 6.941406 -5.6875 5.609375 -5.6875 L 4.34375 -5.6875 C 4.3125 -5.476562 4.285156 -5.269531 4.265625 -5.0625 C 4.242188 -4.863281 4.234375 -4.675781 4.234375 -4.5 C 4.234375 -3.757812 4.425781 -3.203125 4.8125 -2.828125 C 5.195312 -2.453125 5.8125 -2.265625 6.65625 -2.265625 C 7.257812 -2.265625 7.800781 -2.304688 8.28125 -2.390625 C 8.757812 -2.484375 9.175781 -2.582031 9.53125 -2.6875 C 9.894531 -2.789062 10.191406 -2.882812 10.421875 -2.96875 C 10.660156 -3.0625 10.835938 -3.109375 10.953125 -3.109375 C 11.054688 -3.109375 11.128906 -3.070312 11.171875 -3 C 11.222656 -2.9375 11.25 -2.835938 11.25 -2.703125 C 11.25 -2.546875 11.234375 -2.367188 11.203125 -2.171875 C 11.179688 -1.972656 11.144531 -1.773438 11.09375 -1.578125 C 11.039062 -1.378906 10.972656 -1.191406 10.890625 -1.015625 C 10.816406 -0.847656 10.734375 -0.71875 10.640625 -0.625 C 10.523438 -0.519531 10.320312 -0.410156 10.03125 -0.296875 C 9.738281 -0.191406 9.390625 -0.09375 8.984375 0 C 8.578125 0.09375 8.117188 0.164062 7.609375 0.21875 C 7.097656 0.28125 6.578125 0.3125 6.046875 0.3125 C 5.171875 0.3125 4.40625 0.21875 3.75 0.03125 C 3.101562 -0.144531 2.5625 -0.421875 2.125 -0.796875 C 1.6875 -1.171875 1.359375 -1.644531 1.140625 -2.21875 C 0.921875 -2.800781 0.8125 -3.488281 0.8125 -4.28125 C 0.8125 -4.894531 0.867188 -5.546875 0.984375 -6.234375 C 1.097656 -6.929688 1.28125 -7.617188 1.53125 -8.296875 C 1.789062 -8.984375 2.117188 -9.632812 2.515625 -10.25 C 2.921875 -10.875 3.40625 -11.421875 3.96875 -11.890625 C 4.539062 -12.359375 5.195312 -12.734375 5.9375 -13.015625 C 6.6875 -13.296875 7.539062 -13.4375 8.5 -13.4375 C 9.332031 -13.4375 10.046875 -13.335938 10.640625 -13.140625 C 11.242188 -12.953125 11.734375 -12.691406 12.109375 -12.359375 C 12.492188 -12.035156 12.78125 -11.664062 12.96875 -11.25 C 13.15625 -10.84375 13.25 -10.421875 13.25 -9.984375 Z M 9.875 -9.71875 C 9.875 -10.082031 9.726562 -10.382812 9.4375 -10.625 C 9.15625 -10.875 8.738281 -11 8.1875 -11 C 7.726562 -11 7.316406 -10.914062 6.953125 -10.75 C 6.597656 -10.582031 6.285156 -10.359375 6.015625 -10.078125 C 5.742188 -9.804688 5.507812 -9.476562 5.3125 -9.09375 C 5.113281 -8.71875 4.957031 -8.316406 4.84375 -7.890625 L 5.984375 -7.890625 C 6.710938 -7.890625 7.320312 -7.9375 7.8125 -8.03125 C 8.3125 -8.125 8.710938 -8.253906 9.015625 -8.421875 C 9.316406 -8.585938 9.535156 -8.78125 9.671875 -9 C 9.804688 -9.226562 9.875 -9.46875 9.875 -9.71875 Z M 9.875 -9.71875 "/></g></g></g><g fill="#ffffff" fill-opacity="1"><g transform="translate(462.173928, 132.673391)"><g><path d="M 10.59375 -12.125 C 10.59375 -12.019531 10.578125 -11.859375 10.546875 -11.640625 C 10.515625 -11.429688 10.46875 -11.21875 10.40625 -11 C 10.34375 -10.78125 10.265625 -10.585938 10.171875 -10.421875 C 10.085938 -10.265625 9.992188 -10.1875 9.890625 -10.1875 C 9.765625 -10.1875 9.625 -10.226562 9.46875 -10.3125 C 9.3125 -10.40625 9.117188 -10.503906 8.890625 -10.609375 C 8.660156 -10.710938 8.390625 -10.800781 8.078125 -10.875 C 7.773438 -10.957031 7.421875 -11 7.015625 -11 C 6.691406 -11 6.40625 -10.957031 6.15625 -10.875 C 5.90625 -10.800781 5.695312 -10.691406 5.53125 -10.546875 C 5.375 -10.410156 5.25 -10.242188 5.15625 -10.046875 C 5.070312 -9.859375 5.03125 -9.65625 5.03125 -9.4375 C 5.03125 -9.15625 5.144531 -8.914062 5.375 -8.71875 C 5.613281 -8.53125 5.90625 -8.351562 6.25 -8.1875 C 6.59375 -8.019531 6.960938 -7.84375 7.359375 -7.65625 C 7.765625 -7.476562 8.140625 -7.25 8.484375 -6.96875 C 8.835938 -6.695312 9.125 -6.363281 9.34375 -5.96875 C 9.570312 -5.582031 9.6875 -5.09375 9.6875 -4.5 C 9.6875 -3.800781 9.554688 -3.160156 9.296875 -2.578125 C 9.035156 -1.992188 8.648438 -1.484375 8.140625 -1.046875 C 7.640625 -0.617188 7.023438 -0.285156 6.296875 -0.046875 C 5.566406 0.191406 4.75 0.3125 3.84375 0.3125 C 3.40625 0.3125 2.988281 0.28125 2.59375 0.21875 C 2.195312 0.15625 1.835938 0.078125 1.515625 -0.015625 C 1.203125 -0.109375 0.9375 -0.210938 0.71875 -0.328125 C 0.5 -0.441406 0.335938 -0.550781 0.234375 -0.65625 C 0.160156 -0.726562 0.109375 -0.804688 0.078125 -0.890625 C 0.046875 -0.972656 0.03125 -1.078125 0.03125 -1.203125 C 0.03125 -1.285156 0.0351562 -1.390625 0.046875 -1.515625 C 0.0546875 -1.640625 0.078125 -1.78125 0.109375 -1.9375 C 0.148438 -2.09375 0.1875 -2.25 0.21875 -2.40625 C 0.257812 -2.5625 0.304688 -2.703125 0.359375 -2.828125 C 0.421875 -2.953125 0.484375 -3.050781 0.546875 -3.125 C 0.609375 -3.207031 0.675781 -3.25 0.75 -3.25 C 0.875 -3.25 1.015625 -3.191406 1.171875 -3.078125 C 1.328125 -2.972656 1.523438 -2.851562 1.765625 -2.71875 C 2.015625 -2.59375 2.320312 -2.472656 2.6875 -2.359375 C 3.050781 -2.242188 3.5 -2.1875 4.03125 -2.1875 C 4.40625 -2.1875 4.726562 -2.226562 5 -2.3125 C 5.28125 -2.40625 5.507812 -2.523438 5.6875 -2.671875 C 5.875 -2.828125 6.007812 -3.003906 6.09375 -3.203125 C 6.1875 -3.410156 6.234375 -3.628906 6.234375 -3.859375 C 6.234375 -4.171875 6.117188 -4.425781 5.890625 -4.625 C 5.671875 -4.832031 5.390625 -5.019531 5.046875 -5.1875 C 4.710938 -5.363281 4.347656 -5.539062 3.953125 -5.71875 C 3.554688 -5.90625 3.191406 -6.128906 2.859375 -6.390625 C 2.523438 -6.660156 2.242188 -6.988281 2.015625 -7.375 C 1.796875 -7.769531 1.6875 -8.265625 1.6875 -8.859375 C 1.6875 -9.503906 1.804688 -10.101562 2.046875 -10.65625 C 2.296875 -11.21875 2.65625 -11.707031 3.125 -12.125 C 3.601562 -12.539062 4.175781 -12.863281 4.84375 -13.09375 C 5.519531 -13.320312 6.289062 -13.4375 7.15625 -13.4375 C 7.53125 -13.4375 7.898438 -13.410156 8.265625 -13.359375 C 8.628906 -13.316406 8.953125 -13.253906 9.234375 -13.171875 C 9.523438 -13.085938 9.773438 -12.992188 9.984375 -12.890625 C 10.203125 -12.796875 10.359375 -12.695312 10.453125 -12.59375 C 10.546875 -12.5 10.59375 -12.34375 10.59375 -12.125 Z M 10.59375 -12.125 "/></g></g></g><g fill="#ffffff" fill-opacity="1"><g transform="translate(474.241906, 132.673391)"><g><path d="M 11.859375 -0.453125 C 11.835938 -0.359375 11.796875 -0.273438 11.734375 -0.203125 C 11.679688 -0.140625 11.59375 -0.0859375 11.46875 -0.046875 C 11.34375 -0.00390625 11.179688 0.0234375 10.984375 0.046875 C 10.796875 0.0664062 10.5625 0.078125 10.28125 0.078125 C 10 0.078125 9.769531 0.0664062 9.59375 0.046875 C 9.414062 0.0234375 9.273438 -0.00390625 9.171875 -0.046875 C 9.078125 -0.0859375 9.007812 -0.140625 8.96875 -0.203125 C 8.9375 -0.273438 8.9375 -0.359375 8.96875 -0.453125 L 9.34375 -2.4375 C 9.15625 -2.113281 8.898438 -1.789062 8.578125 -1.46875 C 8.265625 -1.144531 7.898438 -0.847656 7.484375 -0.578125 C 7.066406 -0.304688 6.617188 -0.09375 6.140625 0.0625 C 5.660156 0.226562 5.164062 0.3125 4.65625 0.3125 C 4.007812 0.3125 3.460938 0.222656 3.015625 0.046875 C 2.578125 -0.128906 2.222656 -0.367188 1.953125 -0.671875 C 1.691406 -0.984375 1.5 -1.351562 1.375 -1.78125 C 1.25 -2.207031 1.1875 -2.671875 1.1875 -3.171875 C 1.1875 -3.484375 1.207031 -3.800781 1.25 -4.125 C 1.289062 -4.445312 1.34375 -4.773438 1.40625 -5.109375 L 2.90625 -12.671875 C 2.925781 -12.765625 2.96875 -12.84375 3.03125 -12.90625 C 3.101562 -12.976562 3.207031 -13.035156 3.34375 -13.078125 C 3.488281 -13.117188 3.675781 -13.148438 3.90625 -13.171875 C 4.132812 -13.191406 4.414062 -13.203125 4.75 -13.203125 C 5.082031 -13.203125 5.351562 -13.191406 5.5625 -13.171875 C 5.78125 -13.148438 5.945312 -13.117188 6.0625 -13.078125 C 6.1875 -13.035156 6.269531 -12.976562 6.3125 -12.90625 C 6.351562 -12.84375 6.363281 -12.765625 6.34375 -12.671875 L 4.890625 -5.34375 C 4.847656 -5.144531 4.816406 -4.9375 4.796875 -4.71875 C 4.773438 -4.5 4.765625 -4.289062 4.765625 -4.09375 C 4.765625 -3.875 4.78125 -3.675781 4.8125 -3.5 C 4.851562 -3.320312 4.921875 -3.164062 5.015625 -3.03125 C 5.109375 -2.90625 5.222656 -2.8125 5.359375 -2.75 C 5.503906 -2.6875 5.675781 -2.65625 5.875 -2.65625 C 6.25 -2.65625 6.640625 -2.773438 7.046875 -3.015625 C 7.453125 -3.253906 7.835938 -3.585938 8.203125 -4.015625 C 8.566406 -4.441406 8.890625 -4.941406 9.171875 -5.515625 C 9.460938 -6.097656 9.679688 -6.722656 9.828125 -7.390625 L 10.875 -12.671875 C 10.882812 -12.765625 10.925781 -12.84375 11 -12.90625 C 11.070312 -12.976562 11.175781 -13.035156 11.3125 -13.078125 C 11.457031 -13.117188 11.640625 -13.148438 11.859375 -13.171875 C 12.085938 -13.191406 12.367188 -13.203125 12.703125 -13.203125 C 13.035156 -13.203125 13.304688 -13.191406 13.515625 -13.171875 C 13.734375 -13.148438 13.90625 -13.117188 14.03125 -13.078125 C 14.15625 -13.035156 14.234375 -12.976562 14.265625 -12.90625 C 14.304688 -12.84375 14.316406 -12.765625 14.296875 -12.671875 Z M 11.859375 -0.453125 "/></g></g></g><g fill="#ffffff" fill-opacity="1"><g transform="translate(490.041801, 132.673391)"><g><path d="M 3.984375 -0.46875 C 3.960938 -0.375 3.914062 -0.289062 3.84375 -0.21875 C 3.78125 -0.15625 3.679688 -0.0976562 3.546875 -0.046875 C 3.410156 -0.00390625 3.226562 0.0234375 3 0.046875 C 2.769531 0.0664062 2.488281 0.078125 2.15625 0.078125 C 1.8125 0.078125 1.53125 0.0664062 1.3125 0.046875 C 1.101562 0.0234375 0.9375 -0.00390625 0.8125 -0.046875 C 0.695312 -0.0976562 0.617188 -0.15625 0.578125 -0.21875 C 0.535156 -0.289062 0.523438 -0.375 0.546875 -0.46875 L 4.140625 -18.4375 C 4.160156 -18.53125 4.203125 -18.613281 4.265625 -18.6875 C 4.328125 -18.757812 4.429688 -18.820312 4.578125 -18.875 C 4.722656 -18.925781 4.90625 -18.960938 5.125 -18.984375 C 5.351562 -19.015625 5.632812 -19.03125 5.96875 -19.03125 C 6.3125 -19.03125 6.585938 -19.015625 6.796875 -18.984375 C 7.015625 -18.960938 7.179688 -18.925781 7.296875 -18.875 C 7.421875 -18.820312 7.5 -18.757812 7.53125 -18.6875 C 7.570312 -18.613281 7.582031 -18.53125 7.5625 -18.4375 Z M 3.984375 -0.46875 "/></g></g></g><g fill="#ffffff" fill-opacity="1"><g transform="translate(497.954108, 132.673391)"><g><path d="M 10.125 -12.53125 C 10.125 -12.445312 10.113281 -12.332031 10.09375 -12.1875 C 10.082031 -12.050781 10.0625 -11.898438 10.03125 -11.734375 C 10 -11.566406 9.953125 -11.398438 9.890625 -11.234375 C 9.835938 -11.078125 9.773438 -10.929688 9.703125 -10.796875 C 9.640625 -10.660156 9.566406 -10.550781 9.484375 -10.46875 C 9.398438 -10.382812 9.304688 -10.34375 9.203125 -10.34375 L 6.53125 -10.34375 L 5.390625 -4.609375 C 5.359375 -4.472656 5.332031 -4.3125 5.3125 -4.125 C 5.289062 -3.9375 5.28125 -3.785156 5.28125 -3.671875 C 5.28125 -3.304688 5.363281 -3.035156 5.53125 -2.859375 C 5.707031 -2.691406 5.984375 -2.609375 6.359375 -2.609375 C 6.578125 -2.609375 6.765625 -2.625 6.921875 -2.65625 C 7.078125 -2.6875 7.210938 -2.722656 7.328125 -2.765625 C 7.441406 -2.804688 7.535156 -2.84375 7.609375 -2.875 C 7.691406 -2.90625 7.769531 -2.921875 7.84375 -2.921875 C 7.914062 -2.921875 7.976562 -2.882812 8.03125 -2.8125 C 8.082031 -2.75 8.109375 -2.640625 8.109375 -2.484375 C 8.109375 -2.316406 8.085938 -2.125 8.046875 -1.90625 C 8.015625 -1.6875 7.96875 -1.472656 7.90625 -1.265625 C 7.851562 -1.054688 7.789062 -0.867188 7.71875 -0.703125 C 7.644531 -0.535156 7.566406 -0.410156 7.484375 -0.328125 C 7.398438 -0.242188 7.273438 -0.164062 7.109375 -0.09375 C 6.941406 -0.0195312 6.742188 0.0390625 6.515625 0.09375 C 6.296875 0.144531 6.054688 0.1875 5.796875 0.21875 C 5.546875 0.257812 5.296875 0.28125 5.046875 0.28125 C 4.492188 0.28125 4.007812 0.222656 3.59375 0.109375 C 3.1875 -0.00390625 2.84375 -0.1875 2.5625 -0.4375 C 2.28125 -0.6875 2.066406 -1 1.921875 -1.375 C 1.773438 -1.757812 1.703125 -2.226562 1.703125 -2.78125 C 1.703125 -2.875 1.707031 -2.988281 1.71875 -3.125 C 1.726562 -3.257812 1.742188 -3.398438 1.765625 -3.546875 C 1.796875 -3.691406 1.820312 -3.835938 1.84375 -3.984375 C 1.863281 -4.140625 1.890625 -4.273438 1.921875 -4.390625 L 3.109375 -10.34375 L 1.625 -10.34375 C 1.507812 -10.34375 1.421875 -10.378906 1.359375 -10.453125 C 1.304688 -10.523438 1.28125 -10.671875 1.28125 -10.890625 C 1.28125 -11.046875 1.296875 -11.25 1.328125 -11.5 C 1.359375 -11.75 1.410156 -11.992188 1.484375 -12.234375 C 1.554688 -12.484375 1.648438 -12.691406 1.765625 -12.859375 C 1.890625 -13.035156 2.035156 -13.125 2.203125 -13.125 L 3.671875 -13.125 L 4.21875 -15.84375 C 4.226562 -15.9375 4.265625 -16.019531 4.328125 -16.09375 C 4.398438 -16.164062 4.507812 -16.226562 4.65625 -16.28125 C 4.800781 -16.332031 4.984375 -16.367188 5.203125 -16.390625 C 5.421875 -16.410156 5.703125 -16.421875 6.046875 -16.421875 C 6.367188 -16.421875 6.640625 -16.410156 6.859375 -16.390625 C 7.078125 -16.367188 7.242188 -16.332031 7.359375 -16.28125 C 7.484375 -16.226562 7.566406 -16.164062 7.609375 -16.09375 C 7.648438 -16.019531 7.660156 -15.9375 7.640625 -15.84375 L 7.09375 -13.125 L 9.734375 -13.125 C 9.890625 -13.125 9.992188 -13.070312 10.046875 -12.96875 C 10.097656 -12.875 10.125 -12.726562 10.125 -12.53125 Z M 10.125 -12.53125 "/></g></g></g><g fill="#ffffff" fill-opacity="1"><g transform="translate(508.696081, 132.673391)"><g><path d="M 10.59375 -12.125 C 10.59375 -12.019531 10.578125 -11.859375 10.546875 -11.640625 C 10.515625 -11.429688 10.46875 -11.21875 10.40625 -11 C 10.34375 -10.78125 10.265625 -10.585938 10.171875 -10.421875 C 10.085938 -10.265625 9.992188 -10.1875 9.890625 -10.1875 C 9.765625 -10.1875 9.625 -10.226562 9.46875 -10.3125 C 9.3125 -10.40625 9.117188 -10.503906 8.890625 -10.609375 C 8.660156 -10.710938 8.390625 -10.800781 8.078125 -10.875 C 7.773438 -10.957031 7.421875 -11 7.015625 -11 C 6.691406 -11 6.40625 -10.957031 6.15625 -10.875 C 5.90625 -10.800781 5.695312 -10.691406 5.53125 -10.546875 C 5.375 -10.410156 5.25 -10.242188 5.15625 -10.046875 C 5.070312 -9.859375 5.03125 -9.65625 5.03125 -9.4375 C 5.03125 -9.15625 5.144531 -8.914062 5.375 -8.71875 C 5.613281 -8.53125 5.90625 -8.351562 6.25 -8.1875 C 6.59375 -8.019531 6.960938 -7.84375 7.359375 -7.65625 C 7.765625 -7.476562 8.140625 -7.25 8.484375 -6.96875 C 8.835938 -6.695312 9.125 -6.363281 9.34375 -5.96875 C 9.570312 -5.582031 9.6875 -5.09375 9.6875 -4.5 C 9.6875 -3.800781 9.554688 -3.160156 9.296875 -2.578125 C 9.035156 -1.992188 8.648438 -1.484375 8.140625 -1.046875 C 7.640625 -0.617188 7.023438 -0.285156 6.296875 -0.046875 C 5.566406 0.191406 4.75 0.3125 3.84375 0.3125 C 3.40625 0.3125 2.988281 0.28125 2.59375 0.21875 C 2.195312 0.15625 1.835938 0.078125 1.515625 -0.015625 C 1.203125 -0.109375 0.9375 -0.210938 0.71875 -0.328125 C 0.5 -0.441406 0.335938 -0.550781 0.234375 -0.65625 C 0.160156 -0.726562 0.109375 -0.804688 0.078125 -0.890625 C 0.046875 -0.972656 0.03125 -1.078125 0.03125 -1.203125 C 0.03125 -1.285156 0.0351562 -1.390625 0.046875 -1.515625 C 0.0546875 -1.640625 0.078125 -1.78125 0.109375 -1.9375 C 0.148438 -2.09375 0.1875 -2.25 0.21875 -2.40625 C 0.257812 -2.5625 0.304688 -2.703125 0.359375 -2.828125 C 0.421875 -2.953125 0.484375 -3.050781 0.546875 -3.125 C 0.609375 -3.207031 0.675781 -3.25 0.75 -3.25 C 0.875 -3.25 1.015625 -3.191406 1.171875 -3.078125 C 1.328125 -2.972656 1.523438 -2.851562 1.765625 -2.71875 C 2.015625 -2.59375 2.320312 -2.472656 2.6875 -2.359375 C 3.050781 -2.242188 3.5 -2.1875 4.03125 -2.1875 C 4.40625 -2.1875 4.726562 -2.226562 5 -2.3125 C 5.28125 -2.40625 5.507812 -2.523438 5.6875 -2.671875 C 5.875 -2.828125 6.007812 -3.003906 6.09375 -3.203125 C 6.1875 -3.410156 6.234375 -3.628906 6.234375 -3.859375 C 6.234375 -4.171875 6.117188 -4.425781 5.890625 -4.625 C 5.671875 -4.832031 5.390625 -5.019531 5.046875 -5.1875 C 4.710938 -5.363281 4.347656 -5.539062 3.953125 -5.71875 C 3.554688 -5.90625 3.191406 -6.128906 2.859375 -6.390625 C 2.523438 -6.660156 2.242188 -6.988281 2.015625 -7.375 C 1.796875 -7.769531 1.6875 -8.265625 1.6875 -8.859375 C 1.6875 -9.503906 1.804688 -10.101562 2.046875 -10.65625 C 2.296875 -11.21875 2.65625 -11.707031 3.125 -12.125 C 3.601562 -12.539062 4.175781 -12.863281 4.84375 -13.09375 C 5.519531 -13.320312 6.289062 -13.4375 7.15625 -13.4375 C 7.53125 -13.4375 7.898438 -13.410156 8.265625 -13.359375 C 8.628906 -13.316406 8.953125 -13.253906 9.234375 -13.171875 C 9.523438 -13.085938 9.773438 -12.992188 9.984375 -12.890625 C 10.203125 -12.796875 10.359375 -12.695312 10.453125 -12.59375 C 10.546875 -12.5 10.59375 -12.34375 10.59375 -12.125 Z M 10.59375 -12.125 "/></g></g></g><g fill="#ffffff" fill-opacity="1"><g transform="translate(520.764058, 132.673391)"><g><path d="M 4.953125 -2.703125 C 4.953125 -2.566406 4.9375 -2.390625 4.90625 -2.171875 C 4.882812 -1.953125 4.84375 -1.726562 4.78125 -1.5 C 4.71875 -1.269531 4.640625 -1.046875 4.546875 -0.828125 C 4.453125 -0.609375 4.332031 -0.425781 4.1875 -0.28125 C 4.050781 -0.144531 3.84375 -0.0351562 3.5625 0.046875 C 3.28125 0.128906 2.914062 0.171875 2.46875 0.171875 C 2.125 0.171875 1.835938 0.144531 1.609375 0.09375 C 1.390625 0.0390625 1.210938 -0.0351562 1.078125 -0.140625 C 0.953125 -0.253906 0.859375 -0.394531 0.796875 -0.5625 C 0.742188 -0.738281 0.71875 -0.9375 0.71875 -1.15625 C 0.71875 -1.300781 0.734375 -1.484375 0.765625 -1.703125 C 0.804688 -1.921875 0.851562 -2.144531 0.90625 -2.375 C 0.96875 -2.613281 1.046875 -2.835938 1.140625 -3.046875 C 1.234375 -3.253906 1.351562 -3.425781 1.5 -3.5625 C 1.644531 -3.707031 1.847656 -3.820312 2.109375 -3.90625 C 2.378906 -4 2.753906 -4.046875 3.234375 -4.046875 C 3.585938 -4.046875 3.875 -4.015625 4.09375 -3.953125 C 4.320312 -3.890625 4.5 -3.800781 4.625 -3.6875 C 4.757812 -3.570312 4.847656 -3.429688 4.890625 -3.265625 C 4.929688 -3.097656 4.953125 -2.910156 4.953125 -2.703125 Z M 4.953125 -2.703125 "/></g></g></g></svg>